<?xml version="1.0" encoding="UTF-8" standalone="no"?>
<!-- Created with Inkscape (http://www.inkscape.org/) -->

<svg
   xmlns:ns0="http://www.iki.fi/pav/software/textext/"
   xmlns:dc="http://purl.org/dc/elements/1.1/"
   xmlns:cc="http://creativecommons.org/ns#"
   xmlns:rdf="http://www.w3.org/1999/02/22-rdf-syntax-ns#"
   xmlns:svg="http://www.w3.org/2000/svg"
   xmlns="http://www.w3.org/2000/svg"
   xmlns:xlink="http://www.w3.org/1999/xlink"
   xmlns:sodipodi="http://sodipodi.sourceforge.net/DTD/sodipodi-0.dtd"
   xmlns:inkscape="http://www.inkscape.org/namespaces/inkscape"
   id="svg2"
   version="1.1"
   inkscape:version="0.48.2 r9819"
   width="605"
   height="486.25"
   xml:space="preserve"
   sodipodi:docname="ioquant.eps"><sodipodi:namedview
     pagecolor="#ffffff"
     bordercolor="#666666"
     borderopacity="1"
     objecttolerance="10"
     gridtolerance="10"
     guidetolerance="10"
     inkscape:pageopacity="0"
     inkscape:pageshadow="2"
     inkscape:window-width="1366"
     inkscape:window-height="713"
     id="namedview4"
     showgrid="false"
     inkscape:zoom="1.1324836"
     inkscape:cx="303.01325"
     inkscape:cy="243.33388"
     inkscape:window-x="-3"
     inkscape:window-y="-3"
     inkscape:window-maximized="1"
     inkscape:current-layer="g10" /><metadata
     id="metadata8"><rdf:RDF><cc:Work
         rdf:about=""><dc:format>image/svg+xml</dc:format><dc:type
           rdf:resource="http://purl.org/dc/dcmitype/StillImage" /><dc:title></dc:title></cc:Work></rdf:RDF></metadata><defs
     id="defs6" /><g
     id="g10"
     inkscape:groupmode="layer"
     inkscape:label="ink_ext_XXXXXX"
     transform="matrix(1.25,0,0,-1.25,0,486.25)"><path
       inkscape:connector-curvature="0"
       id="path14"
       style="fill:#ffffff;fill-opacity:1;fill-rule:nonzero;stroke:none"
       d="m 18.8332,18.6672 446.334,0 0,352 -446.334,0 0,-352 z" /><path
       inkscape:connector-curvature="0"
       id="path16"
       style="fill:none;stroke:#ffffff;stroke-width:0.49980003;stroke-linecap:butt;stroke-linejoin:miter;stroke-miterlimit:10;stroke-opacity:1;stroke-dasharray:none"
       d="m 18.8332,18.6672 0,351.9998 446.3338,0 0,-351.9998 -446.3338,0" /><path
       inkscape:connector-curvature="0"
       id="path18"
       style="fill:none;stroke:#363639;stroke-width:0.49980003;stroke-linecap:butt;stroke-linejoin:miter;stroke-miterlimit:10;stroke-opacity:1;stroke-dasharray:none"
       d="m 18.8332,370.667 446.3338,0" /><path
       inkscape:connector-curvature="0"
       id="path20"
       style="fill:none;stroke:#363639;stroke-width:0.49980003;stroke-linecap:butt;stroke-linejoin:miter;stroke-miterlimit:10;stroke-opacity:1;stroke-dasharray:none"
       d="m 18.8332,18.6672 446.3338,0" /><path
       inkscape:connector-curvature="0"
       id="path22"
       style="fill:none;stroke:#363639;stroke-width:0.49980003;stroke-linecap:butt;stroke-linejoin:miter;stroke-miterlimit:10;stroke-opacity:1;stroke-dasharray:none"
       d="m 465.167,18.6672 0,351.9998" /><path
       inkscape:connector-curvature="0"
       id="path24"
       style="fill:none;stroke:#363639;stroke-width:0.49980003;stroke-linecap:butt;stroke-linejoin:miter;stroke-miterlimit:10;stroke-opacity:1;stroke-dasharray:none"
       d="m 18.8332,18.6672 0,351.9998" /><path
       inkscape:connector-curvature="0"
       id="path26"
       style="fill:none;stroke:#363639;stroke-width:0.49980003;stroke-linecap:butt;stroke-linejoin:miter;stroke-miterlimit:10;stroke-opacity:1;stroke-dasharray:none"
       d="m 18.8332,18.6672 446.3338,0" /><path
       inkscape:connector-curvature="0"
       id="path28"
       style="fill:none;stroke:#363639;stroke-width:0.49980003;stroke-linecap:butt;stroke-linejoin:miter;stroke-miterlimit:10;stroke-opacity:1;stroke-dasharray:none"
       d="m 18.8332,18.6672 0,351.9998" /><path
       inkscape:connector-curvature="0"
       id="path30"
       style="fill:none;stroke:#363639;stroke-width:0.49980003;stroke-linecap:butt;stroke-linejoin:miter;stroke-miterlimit:10;stroke-opacity:1;stroke-dasharray:none"
       d="m 18.8332,18.6672 0,4.5" /><path
       inkscape:connector-curvature="0"
       id="path32"
       style="fill:none;stroke:#363639;stroke-width:0.49980003;stroke-linecap:butt;stroke-linejoin:miter;stroke-miterlimit:10;stroke-opacity:1;stroke-dasharray:none"
       d="m 18.8332,370.667 0,-4.5" /><path
       inkscape:connector-curvature="0"
       id="path34"
       style="fill:none;stroke:#363639;stroke-width:0.49980003;stroke-linecap:butt;stroke-linejoin:miter;stroke-miterlimit:10;stroke-opacity:1;stroke-dasharray:none"
       d="m 465.167,18.6672 0,4.5" /><path
       inkscape:connector-curvature="0"
       id="path36"
       style="fill:none;stroke:#363639;stroke-width:0.49980003;stroke-linecap:butt;stroke-linejoin:miter;stroke-miterlimit:10;stroke-opacity:1;stroke-dasharray:none"
       d="m 465.167,370.667 0,-4.5" /><path
       inkscape:connector-curvature="0"
       id="path38"
       style="fill:none;stroke:#363639;stroke-width:0.49980003;stroke-linecap:butt;stroke-linejoin:miter;stroke-miterlimit:10;stroke-opacity:1;stroke-dasharray:none"
       d="m 18.8332,18.6672 4.5,0" /><path
       inkscape:connector-curvature="0"
       id="path40"
       style="fill:none;stroke:#363639;stroke-width:0.49980003;stroke-linecap:butt;stroke-linejoin:miter;stroke-miterlimit:10;stroke-opacity:1;stroke-dasharray:none"
       d="m 465.167,18.6672 -4.5,0" /><path
       inkscape:connector-curvature="0"
       id="path42"
       style="fill:none;stroke:#363639;stroke-width:0.49980003;stroke-linecap:butt;stroke-linejoin:miter;stroke-miterlimit:10;stroke-opacity:1;stroke-dasharray:none"
       d="m 465.167,219.833 -4.5,0" /><path
       inkscape:connector-curvature="0"
       id="path44"
       style="fill:none;stroke:#363639;stroke-width:0.49980003;stroke-linecap:butt;stroke-linejoin:miter;stroke-miterlimit:10;stroke-opacity:1;stroke-dasharray:none"
       d="m 18.8332,370.667 4.5,0" /><path
       inkscape:connector-curvature="0"
       id="path46"
       style="fill:none;stroke:#363639;stroke-width:0.49980003;stroke-linecap:butt;stroke-linejoin:miter;stroke-miterlimit:10;stroke-opacity:1;stroke-dasharray:none"
       d="m 465.167,370.667 -4.5,0" /><path
       inkscape:connector-curvature="0"
       id="path48"
       style="fill:none;stroke:#363639;stroke-width:0.49980003;stroke-linecap:butt;stroke-linejoin:miter;stroke-miterlimit:10;stroke-opacity:1;stroke-dasharray:none"
       d="m 18.8332,370.667 446.3338,0" /><path
       inkscape:connector-curvature="0"
       id="path50"
       style="fill:none;stroke:#363639;stroke-width:0.49980003;stroke-linecap:butt;stroke-linejoin:miter;stroke-miterlimit:10;stroke-opacity:1;stroke-dasharray:none"
       d="m 18.8332,18.6672 446.3338,0" /><path
       inkscape:connector-curvature="0"
       id="path52"
       style="fill:none;stroke:#363639;stroke-width:0.49980003;stroke-linecap:butt;stroke-linejoin:miter;stroke-miterlimit:10;stroke-opacity:1;stroke-dasharray:none"
       d="m 465.167,18.6672 0,351.9998" /><path
       inkscape:connector-curvature="0"
       id="path54"
       style="fill:none;stroke:#363639;stroke-width:0.49980003;stroke-linecap:butt;stroke-linejoin:miter;stroke-miterlimit:10;stroke-opacity:1;stroke-dasharray:none"
       d="m 18.8332,18.6672 0,351.9998" /><path
       inkscape:connector-curvature="0"
       id="path56"
       style="fill:none;stroke:#363639;stroke-width:0.49980003;stroke-linecap:butt;stroke-linejoin:miter;stroke-miterlimit:10;stroke-opacity:1;stroke-dasharray:none"
       d="m 24.1617,80.1711 4.4172,11.9168 4.5,11.7501 4.416,11.5 4.5,11.083 4.4172,10.583 4.5,10 4.416,9.333 4.5,8.667 4.5,7.833 4.4168,7 4.5,6.167 4.416,5.166 4.5,4.25 4.4172,3.167 4.5,2.25 4.5,1.25 4.416,0.166 4.4999,-0.75 4.417,-1.666 4.5,-2.667 4.416,-3.5 4.5,-4.25 4.417,-5.083 4.5,-5.75 4.5,-6.333 4.416,-6.834 4.5,-7.25 4.417,-7.666 4.5,-7.833 4.416,-8 4.5,-8.084 4.417,-7.916 4.5,-7.833 4.5,-7.584 4.416,-7.2501 4.5,-6.75 4.417,-6.25 4.5,-5.5828 4.416,-4.9172 4.5,-4.166 4.5,-3.4168 4.417,-2.416 4.5,-1.5832 4.416,-0.584 4.5,0.334 4.417,1.416 4.5,2.4172 4.416,3.3328 4.5,4.416 4.5,5.334 4.417,6.25 4.5,7.166 4.416,8 4.5,8.7501 4.417,9.5 4.5,10.167 4.416,10.666 4.5,11.084 4.5,11.5 4.417,11.833 4.5,12 4.416,12 4.5,12.083 4.417,11.917 4.5,11.666 4.5,11.417 4.416,11 4.5,10.5 4.417,9.916 4.5,9.25 4.416,8.5 4.5,7.75 4.417,6.833 4.5,6 4.5,5 4.416,4.084 4.5,3 4.417,2.083 4.5,1 4.416,0.083 4.5,-0.916 4.417,-1.834 4.5,-2.833 4.5,-3.583 4.416,-4.417 4.5,-5.25 4.417,-5.833 4.5,-6.416 4.416,-6.917 4.5,-7.333 4.5,-7.667 4.417,-7.916 4.5,-8 4.416,-8 4.5,-8 4.417,-7.75 4.5,-7.5 4.416,-7.167 4.5,-6.666" /><path
       inkscape:connector-curvature="0"
       id="path58"
       style="fill:none;stroke:#363639;stroke-width:0.49980003;stroke-linecap:butt;stroke-linejoin:miter;stroke-miterlimit:10;stroke-opacity:1;stroke-dasharray:none"
       d="m 19.4609,68.0801 4.5,12.0828" /><path
       inkscape:connector-curvature="0"
       id="path60"
       style="fill:none;stroke:#363639;stroke-width:2;stroke-linecap:butt;stroke-linejoin:miter;stroke-miterlimit:10;stroke-opacity:1;stroke-dasharray:none"
       d="m 22,71 3.9266,-0.043" /><path
       inkscape:connector-curvature="0"
       id="path62"
       style="fill:none;stroke:#363639;stroke-width:2;stroke-linecap:butt;stroke-linejoin:miter;stroke-miterlimit:10;stroke-opacity:1;stroke-dasharray:none"
       d="M 30.5289,84.975 26.4941,84.873" /><path
       inkscape:connector-curvature="0"
       id="path64"
       style="fill:none;stroke:#363639;stroke-width:2;stroke-linecap:butt;stroke-linejoin:miter;stroke-miterlimit:10;stroke-opacity:1;stroke-dasharray:none"
       d="m 32.0852,99.9219 4.9339,-0.0938" /><path
       inkscape:connector-curvature="0"
       id="path66"
       style="fill:none;stroke:#363639;stroke-width:2;stroke-linecap:butt;stroke-linejoin:miter;stroke-miterlimit:10;stroke-opacity:1;stroke-dasharray:none"
       d="m 178.175,100.082 11.247,0.063" /><path
       inkscape:connector-curvature="0"
       id="path68"
       style="fill:none;stroke:#363639;stroke-width:2;stroke-linecap:butt;stroke-linejoin:miter;stroke-miterlimit:10;stroke-opacity:1;stroke-dasharray:none"
       d="m 338.341,85.3051 31.281,0" /><path
       inkscape:connector-curvature="0"
       id="path70"
       style="fill:none;stroke:#363639;stroke-width:0.25;stroke-linecap:butt;stroke-linejoin:miter;stroke-miterlimit:10;stroke-opacity:1;stroke-dasharray:none"
       d="m 339.151,117.391 29.677,0" /><path
       inkscape:connector-curvature="0"
       id="path80"
       style="fill:none;stroke:#363639;stroke-width:1;stroke-linecap:butt;stroke-linejoin:miter;stroke-miterlimit:10;stroke-opacity:1;stroke-dasharray:3, 3;stroke-dashoffset:0"
       d="m 152.441,195.554 55.344,0" /><path
       inkscape:connector-curvature="0"
       id="path82"
       style="fill:none;stroke:#363639;stroke-width:1;stroke-linecap:butt;stroke-linejoin:miter;stroke-miterlimit:10;stroke-opacity:1;stroke-dasharray:3, 3;stroke-dashoffset:0"
       d="m 151.961,180.771 54.337,-0.003" /><path
       inkscape:connector-curvature="0"
       id="path90"
       style="fill:none;stroke:#363639;stroke-width:2;stroke-linecap:butt;stroke-linejoin:miter;stroke-miterlimit:10;stroke-opacity:1;stroke-dasharray:none"
       d="M 38.5199,115.635 43.5,115.732" /><path
       inkscape:connector-curvature="0"
       id="path92"
       style="fill:none;stroke:#363639;stroke-width:2;stroke-linecap:butt;stroke-linejoin:miter;stroke-miterlimit:10;stroke-opacity:1;stroke-dasharray:none"
       d="m 44.775,131.242 5.8,0" /><path
       inkscape:connector-curvature="0"
       id="path94"
       style="fill:none;stroke:#363639;stroke-width:2;stroke-linecap:butt;stroke-linejoin:miter;stroke-miterlimit:10;stroke-opacity:1;stroke-dasharray:none"
       d="m 51.007,145.482 5.8,0" /><path
       inkscape:connector-curvature="0"
       id="path96"
       style="fill:none;stroke:#363639;stroke-width:2;stroke-linecap:butt;stroke-linejoin:miter;stroke-miterlimit:10;stroke-opacity:1;stroke-dasharray:none"
       d="m 59.1238,161.963 7.3891,0.025" /><path
       inkscape:connector-curvature="0"
       id="path98"
       style="fill:none;stroke:#363639;stroke-width:2;stroke-linecap:butt;stroke-linejoin:miter;stroke-miterlimit:10;stroke-opacity:1;stroke-dasharray:none"
       d="m 67.7051,177.862 11.573,0.025" /><path
       inkscape:connector-curvature="0"
       id="path100"
       style="fill:none;stroke:#363639;stroke-width:2;stroke-linecap:butt;stroke-linejoin:miter;stroke-miterlimit:10;stroke-opacity:1;stroke-dasharray:none"
       d="m 80.0051,192.882 48.7269,-0.079" /><path
       inkscape:connector-curvature="0"
       id="path102"
       style="fill:none;stroke:#363639;stroke-width:2;stroke-linecap:butt;stroke-linejoin:miter;stroke-miterlimit:10;stroke-opacity:1;stroke-dasharray:none"
       d="m 131.505,178.909 8.803,0" /><path
       inkscape:connector-curvature="0"
       id="path104"
       style="fill:none;stroke:#363639;stroke-width:2;stroke-linecap:butt;stroke-linejoin:miter;stroke-miterlimit:10;stroke-opacity:1;stroke-dasharray:none"
       d="m 142.626,162.227 8.808,-0.04" /><path
       inkscape:connector-curvature="0"
       id="path106"
       style="fill:none;stroke:#363639;stroke-width:2;stroke-linecap:butt;stroke-linejoin:miter;stroke-miterlimit:10;stroke-opacity:1;stroke-dasharray:none"
       d="m 151.706,146.747 8.532,0.192" /><path
       inkscape:connector-curvature="0"
       id="path108"
       style="fill:none;stroke:#363639;stroke-width:2;stroke-linecap:butt;stroke-linejoin:miter;stroke-miterlimit:10;stroke-opacity:1;stroke-dasharray:none"
       d="m 160.375,131.982 5.8,0" /><path
       inkscape:connector-curvature="0"
       id="path110"
       style="fill:none;stroke:#363639;stroke-width:2;stroke-linecap:butt;stroke-linejoin:miter;stroke-miterlimit:10;stroke-opacity:1;stroke-dasharray:none"
       d="m 168.575,116.962 7.428,-0.138" /><path
       inkscape:connector-curvature="0"
       id="path112"
       style="fill:none;stroke:#363639;stroke-width:2;stroke-linecap:butt;stroke-linejoin:miter;stroke-miterlimit:10;stroke-opacity:1;stroke-dasharray:none"
       d="m 189.888,83.466 13.436,0" /><path
       inkscape:connector-curvature="0"
       id="path114"
       style="fill:none;stroke:#363639;stroke-width:2;stroke-linecap:butt;stroke-linejoin:miter;stroke-miterlimit:10;stroke-opacity:1;stroke-dasharray:none"
       d="m 203.168,68.4488 47.449,0.193" /><path
       inkscape:connector-curvature="0"
       id="path116"
       style="fill:none;stroke:#363639;stroke-width:2;stroke-linecap:butt;stroke-linejoin:miter;stroke-miterlimit:10;stroke-opacity:1;stroke-dasharray:none"
       d="m 252.268,83.2734 10.849,0.0563" /><path
       inkscape:connector-curvature="0"
       id="path118"
       style="fill:none;stroke:#363639;stroke-width:2;stroke-linecap:butt;stroke-linejoin:miter;stroke-miterlimit:10;stroke-opacity:1;stroke-dasharray:none"
       d="m 262.302,101.279 7.39,0.119" /><path
       inkscape:connector-curvature="0"
       id="path120"
       style="fill:none;stroke:#363639;stroke-width:2;stroke-linecap:butt;stroke-linejoin:miter;stroke-miterlimit:10;stroke-opacity:1;stroke-dasharray:none"
       d="m 270.275,117.232 7.741,-0.083" /><path
       inkscape:connector-curvature="0"
       id="path122"
       style="fill:none;stroke:#363639;stroke-width:2;stroke-linecap:butt;stroke-linejoin:miter;stroke-miterlimit:10;stroke-opacity:1;stroke-dasharray:none"
       d="m 277.075,131.862 7.741,-0.083" /><path
       inkscape:connector-curvature="0"
       id="path124"
       style="fill:none;stroke:#363639;stroke-width:2;stroke-linecap:butt;stroke-linejoin:miter;stroke-miterlimit:10;stroke-opacity:1;stroke-dasharray:none"
       d="m 283.375,147.422 7.741,-0.083" /><path
       inkscape:connector-curvature="0"
       id="path126"
       style="fill:none;stroke:#363639;stroke-width:2;stroke-linecap:butt;stroke-linejoin:miter;stroke-miterlimit:10;stroke-opacity:1;stroke-dasharray:none"
       d="m 350.575,307.142 12.715,0.029" /><path
       inkscape:connector-curvature="0"
       id="path128"
       style="fill:none;stroke:#363639;stroke-width:2;stroke-linecap:butt;stroke-linejoin:miter;stroke-miterlimit:10;stroke-opacity:1;stroke-dasharray:none"
       d="m 363.275,321.742 46.951,-0.103" /><path
       inkscape:connector-curvature="0"
       id="path130"
       style="fill:none;stroke:#363639;stroke-width:2;stroke-linecap:butt;stroke-linejoin:miter;stroke-miterlimit:10;stroke-opacity:1;stroke-dasharray:none"
       d="m 290.275,164.4 7.741,-0.083" /><path
       inkscape:connector-curvature="0"
       id="path132"
       style="fill:none;stroke:#363639;stroke-width:2;stroke-linecap:butt;stroke-linejoin:miter;stroke-miterlimit:10;stroke-opacity:1;stroke-dasharray:none"
       d="m 297.075,179.032 5.206,-0.289" /><path
       inkscape:connector-curvature="0"
       id="path134"
       style="fill:none;stroke:#363639;stroke-width:2;stroke-linecap:butt;stroke-linejoin:miter;stroke-miterlimit:10;stroke-opacity:1;stroke-dasharray:none"
       d="m 301.475,194.592 7.741,-0.083" /><path
       inkscape:connector-curvature="0"
       id="path136"
       style="fill:none;stroke:#363639;stroke-width:2;stroke-linecap:butt;stroke-linejoin:miter;stroke-miterlimit:10;stroke-opacity:1;stroke-dasharray:none"
       d="m 308.075,213.112 7.741,-0.083" /><path
       inkscape:connector-curvature="0"
       id="path138"
       style="fill:none;stroke:#363639;stroke-width:2;stroke-linecap:butt;stroke-linejoin:miter;stroke-miterlimit:10;stroke-opacity:1;stroke-dasharray:none"
       d="m 313.075,227.742 7.741,-0.083" /><path
       inkscape:connector-curvature="0"
       id="path140"
       style="fill:none;stroke:#363639;stroke-width:2;stroke-linecap:butt;stroke-linejoin:miter;stroke-miterlimit:10;stroke-opacity:1;stroke-dasharray:none"
       d="m 319.375,244.362 7.741,-0.083" /><path
       inkscape:connector-curvature="0"
       id="path142"
       style="fill:none;stroke:#363639;stroke-width:2;stroke-linecap:butt;stroke-linejoin:miter;stroke-miterlimit:10;stroke-opacity:1;stroke-dasharray:none"
       d="m 325.875,260.892 7.741,-0.083" /><path
       inkscape:connector-curvature="0"
       id="path144"
       style="fill:none;stroke:#363639;stroke-width:2;stroke-linecap:butt;stroke-linejoin:miter;stroke-miterlimit:10;stroke-opacity:1;stroke-dasharray:none"
       d="m 333.175,276.042 7.741,-0.083" /><path
       inkscape:connector-curvature="0"
       id="path146"
       style="fill:none;stroke:#363639;stroke-width:2;stroke-linecap:butt;stroke-linejoin:miter;stroke-miterlimit:10;stroke-opacity:1;stroke-dasharray:none"
       d="m 341.375,291.942 7.741,-0.083" /><path
       inkscape:connector-curvature="0"
       id="path148"
       style="fill:none;stroke:#363639;stroke-width:2;stroke-linecap:butt;stroke-linejoin:miter;stroke-miterlimit:10;stroke-opacity:1;stroke-dasharray:none"
       d="m 411.475,306.142 8.434,0.085" /><path
       inkscape:connector-curvature="0"
       id="path150"
       style="fill:none;stroke:#363639;stroke-width:2;stroke-linecap:butt;stroke-linejoin:miter;stroke-miterlimit:10;stroke-opacity:1;stroke-dasharray:none"
       d="m 422.375,289.442 8.01,-0.066" /><path
       inkscape:connector-curvature="0"
       id="path152"
       style="fill:none;stroke:#363639;stroke-width:2;stroke-linecap:butt;stroke-linejoin:miter;stroke-miterlimit:10;stroke-opacity:1;stroke-dasharray:none"
       d="m 431.675,273.842 8.01,-0.066" /><path
       inkscape:connector-curvature="0"
       id="path154"
       style="fill:none;stroke:#363639;stroke-width:2;stroke-linecap:butt;stroke-linejoin:miter;stroke-miterlimit:10;stroke-opacity:1;stroke-dasharray:none"
       d="m 439.375,260.142 8.01,-0.066" /><path
       inkscape:connector-curvature="0"
       id="path156"
       style="fill:none;stroke:#363639;stroke-width:2;stroke-linecap:butt;stroke-linejoin:miter;stroke-miterlimit:10;stroke-opacity:1;stroke-dasharray:none"
       d="m 447.675,245.222 8.01,-0.066" /><path
       inkscape:connector-curvature="0"
       id="path158"
       style="fill:none;stroke:#363639;stroke-width:2;stroke-linecap:butt;stroke-linejoin:miter;stroke-miterlimit:10;stroke-opacity:1;stroke-dasharray:none"
       d="m 456.475,229.672 7.741,-0.083" /><g
       id="g3487"
       ns0:preamble=""
       ns0:text="$\\Delta Q_i$"
       transform="matrix(2,0,0,-2,-228.8775,451.65484)"><defs
   id="defs3489">
<g
   id="g3491">
<symbol
   id="textext-c7d512c9-0"
   overflow="visible"
   style="overflow:visible">
<path
   id="path3494"
   d="m 4.40625,-6.953125 c -0.0625,-0.140625 -0.09375,-0.1875 -0.265625,-0.1875 -0.15625,0 -0.1875,0.046875 -0.25,0.1875 l -3.375,6.75 C 0.46875,-0.109375 0.46875,-0.09375 0.46875,-0.078125 0.46875,0 0.53125,0 0.6875,0 l 6.921875,0 c 0.15625,0 0.21875,0 0.21875,-0.078125 0,-0.015625 0,-0.03125 -0.046875,-0.125 z m -0.578125,0.8125 2.6875,5.390625 -5.375,0 z m 0,0"
   style="stroke:none"
   inkscape:connector-curvature="0" />
</symbol>
<symbol
   id="textext-c7d512c9-1"
   overflow="visible"
   style="overflow:visible">
<path
   id="path3497"
   d="M 4.359375,-0.0625 C 5.90625,-0.640625 7.375,-2.421875 7.375,-4.34375 c 0,-1.609375 -1.0625,-2.6875 -2.546875,-2.6875 -2.140625,0 -4.34375,2.265625 -4.34375,4.59375 0,1.65625 1.125,2.65625 2.5625,2.65625 0.25,0 0.578125,-0.046875 0.96875,-0.15625 -0.03125,0.625 -0.03125,0.640625 -0.03125,0.78125 0,0.3125 0,1.09375 0.828125,1.09375 1.171875,0 1.65625,-1.828125 1.65625,-1.9375 0,-0.0625 -0.0625,-0.09375 -0.109375,-0.09375 -0.078125,0 -0.09375,0.046875 -0.125,0.109375 C 6,0.71875 5.421875,0.96875 5.078125,0.96875 c -0.46875,0 -0.609375,-0.265625 -0.71875,-1.03125 z m -1.875,-0.078125 c -0.78125,-0.3125 -1.125,-1.078125 -1.125,-1.984375 0,-0.6875 0.265625,-2.109375 1.015625,-3.171875 C 3.109375,-6.3125 4.046875,-6.78125 4.78125,-6.78125 5.765625,-6.78125 6.5,-6 6.5,-4.671875 c 0,1 -0.515625,3.34375 -2.1875,4.265625 -0.046875,-0.34375 -0.140625,-1.0625 -0.875,-1.0625 -0.53125,0 -1.015625,0.484375 -1.015625,1.015625 0,0.1875 0.0625,0.296875 0.0625,0.3125 z M 3.09375,-0.03125 c -0.140625,0 -0.453125,0 -0.453125,-0.421875 0,-0.40625 0.375,-0.796875 0.796875,-0.796875 0.421875,0 0.609375,0.234375 0.609375,0.84375 0,0.140625 -0.015625,0.15625 -0.109375,0.203125 C 3.671875,-0.09375 3.375,-0.03125 3.09375,-0.03125 z m 0,0"
   style="stroke:none"
   inkscape:connector-curvature="0" />
</symbol>
<symbol
   id="textext-c7d512c9-2"
   overflow="visible"
   style="overflow:visible">
<path
   id="path3500"
   d="m 2.265625,-4.359375 c 0,-0.109375 -0.09375,-0.265625 -0.28125,-0.265625 -0.1875,0 -0.390625,0.1875 -0.390625,0.390625 0,0.109375 0.078125,0.265625 0.28125,0.265625 0.1875,0 0.390625,-0.203125 0.390625,-0.390625 z M 0.84375,-0.8125 c -0.03125,0.09375 -0.0625,0.171875 -0.0625,0.296875 0,0.328125 0.265625,0.578125 0.65625,0.578125 0.6875,0 1,-0.953125 1,-1.0625 0,-0.09375 -0.09375,-0.09375 -0.109375,-0.09375 -0.09375,0 -0.109375,0.046875 -0.140625,0.125 -0.15625,0.5625 -0.453125,0.84375 -0.734375,0.84375 -0.140625,0 -0.171875,-0.09375 -0.171875,-0.25 0,-0.15625 0.046875,-0.28125 0.109375,-0.4375 C 1.46875,-1 1.546875,-1.1875 1.609375,-1.375 1.671875,-1.546875 1.9375,-2.171875 1.953125,-2.265625 1.984375,-2.328125 2,-2.40625 2,-2.484375 2,-2.8125 1.71875,-3.078125 1.34375,-3.078125 0.640625,-3.078125 0.328125,-2.125 0.328125,-2 c 0,0.078125 0.09375,0.078125 0.125,0.078125 0.09375,0 0.09375,-0.03125 0.125,-0.109375 C 0.75,-2.625 1.0625,-2.875 1.3125,-2.875 c 0.109375,0 0.171875,0.046875 0.171875,0.234375 0,0.171875 -0.03125,0.265625 -0.203125,0.703125 z m 0,0"
   style="stroke:none"
   inkscape:connector-curvature="0" />
</symbol>
</g>
</defs>
<g
   id="textext-c7d512c9-3">
<g
   id="g3503"
   style="fill:#000000;fill-opacity:1">
  <use
   id="use3505"
   y="134.765"
   x="223.43201"
   xlink:href="#textext-c7d512c9-0"
   width="605"
   height="486.25" />
</g>
<g
   id="g3507"
   style="fill:#000000;fill-opacity:1">
  <use
   id="use3509"
   y="134.765"
   x="231.73399"
   xlink:href="#textext-c7d512c9-1"
   width="605"
   height="486.25" />
</g>
<g
   id="g3511"
   style="fill:#000000;fill-opacity:1">
  <use
   id="use3513"
   y="136.259"
   x="239.61"
   xlink:href="#textext-c7d512c9-2"
   width="605"
   height="486.25" />
</g>
</g>
</g><g
       ns0:text="$x_i$"
       ns0:preamble=""
       transform="matrix(2,0,0,-2,-63.999816,383.71051)"
       id="g3754"><defs
   id="defs3756">
<g
   id="g3758">
<symbol
   style="overflow:visible"
   overflow="visible"
   id="textext-08174465-0">
<path
   inkscape:connector-curvature="0"
   style="stroke:none"
   d="M 3.328125,-3.015625 C 3.390625,-3.265625 3.625,-4.1875 4.3125,-4.1875 c 0.046875,0 0.296875,0 0.5,0.125 C 4.53125,-4 4.34375,-3.765625 4.34375,-3.515625 c 0,0.15625 0.109375,0.34375 0.375,0.34375 0.21875,0 0.53125,-0.171875 0.53125,-0.578125 0,-0.515625 -0.578125,-0.65625 -0.921875,-0.65625 -0.578125,0 -0.921875,0.53125 -1.046875,0.75 -0.25,-0.65625 -0.78125,-0.75 -1.078125,-0.75 -1.03125,0 -1.609375,1.28125 -1.609375,1.53125 0,0.109375 0.109375,0.109375 0.125,0.109375 0.078125,0 0.109375,-0.03125 0.125,-0.109375 0.34375,-1.0625 1,-1.3125 1.34375,-1.3125 0.1875,0 0.53125,0.09375 0.53125,0.671875 0,0.3125 -0.171875,0.96875 -0.53125,2.375 -0.15625,0.609375 -0.515625,1.03125 -0.953125,1.03125 -0.0625,0 -0.28125,0 -0.5,-0.125 0.25,-0.0625 0.46875,-0.265625 0.46875,-0.546875 0,-0.265625 -0.21875,-0.34375 -0.359375,-0.34375 -0.3125,0 -0.546875,0.25 -0.546875,0.578125 0,0.453125 0.484375,0.65625 0.921875,0.65625 0.671875,0 1.03125,-0.703125 1.046875,-0.75 0.125,0.359375 0.484375,0.75 1.078125,0.75 1.03125,0 1.59375,-1.28125 1.59375,-1.53125 0,-0.109375 -0.078125,-0.109375 -0.109375,-0.109375 -0.09375,0 -0.109375,0.046875 -0.140625,0.109375 -0.328125,1.078125 -1,1.3125 -1.3125,1.3125 -0.390625,0 -0.546875,-0.3125 -0.546875,-0.65625 0,-0.21875 0.046875,-0.4375 0.15625,-0.875 z m 0,0"
   id="path3761" />
</symbol>
<symbol
   style="overflow:visible"
   overflow="visible"
   id="textext-08174465-1">
<path
   inkscape:connector-curvature="0"
   style="stroke:none"
   d="m 2.265625,-4.359375 c 0,-0.109375 -0.09375,-0.265625 -0.28125,-0.265625 -0.1875,0 -0.390625,0.1875 -0.390625,0.390625 0,0.109375 0.078125,0.265625 0.28125,0.265625 0.1875,0 0.390625,-0.203125 0.390625,-0.390625 z M 0.84375,-0.8125 c -0.03125,0.09375 -0.0625,0.171875 -0.0625,0.296875 0,0.328125 0.265625,0.578125 0.65625,0.578125 0.6875,0 1,-0.953125 1,-1.0625 0,-0.09375 -0.09375,-0.09375 -0.109375,-0.09375 -0.09375,0 -0.109375,0.046875 -0.140625,0.125 -0.15625,0.5625 -0.453125,0.84375 -0.734375,0.84375 -0.140625,0 -0.171875,-0.09375 -0.171875,-0.25 0,-0.15625 0.046875,-0.28125 0.109375,-0.4375 C 1.46875,-1 1.546875,-1.1875 1.609375,-1.375 1.671875,-1.546875 1.9375,-2.171875 1.953125,-2.265625 1.984375,-2.328125 2,-2.40625 2,-2.484375 2,-2.8125 1.71875,-3.078125 1.34375,-3.078125 0.640625,-3.078125 0.328125,-2.125 0.328125,-2 c 0,0.078125 0.09375,0.078125 0.125,0.078125 0.09375,0 0.09375,-0.03125 0.125,-0.109375 C 0.75,-2.625 1.0625,-2.875 1.3125,-2.875 c 0.109375,0 0.171875,0.046875 0.171875,0.234375 0,0.171875 -0.03125,0.265625 -0.203125,0.703125 z m 0,0"
   id="path3764" />
</symbol>
</g>
</defs>
<g
   id="textext-08174465-2">
<g
   style="fill:#000000;fill-opacity:1"
   id="g3767">
  <use
   height="486.25"
   width="605"
   xlink:href="#textext-08174465-0"
   x="223.43201"
   y="134.765"
   id="use3769" />
</g>
<g
   style="fill:#000000;fill-opacity:1"
   id="g3771">
  <use
   height="486.25"
   width="605"
   xlink:href="#textext-08174465-1"
   x="229.12601"
   y="136.259"
   id="use3773" />
</g>
</g>
</g><g
       id="g4022"
       transform="matrix(2,0,0,-2,-63.940128,353.56893)"
       ns0:preamble=""
       ns0:text="$q_i$"><defs
   id="defs4024">
<g
   id="g4026">
<symbol
   id="textext-1573dd96-0"
   overflow="visible">
<path
   id="path4029"
   d="M 4.5 -4.296875 C 4.5 -4.34375 4.46875 -4.390625 4.40625 -4.390625 C 4.296875 -4.390625 3.890625 -4 3.734375 -3.703125 C 3.515625 -4.25 3.125 -4.40625 2.796875 -4.40625 C 1.625 -4.40625 0.40625 -2.9375 0.40625 -1.484375 C 0.40625 -0.515625 0.984375 0.109375 1.71875 0.109375 C 2.140625 0.109375 2.53125 -0.125 2.890625 -0.484375 C 2.796875 -0.140625 2.46875 1.203125 2.4375 1.296875 C 2.359375 1.578125 2.28125 1.609375 1.71875 1.625 C 1.59375 1.625 1.5 1.625 1.5 1.828125 C 1.5 1.828125 1.5 1.9375 1.625 1.9375 C 1.9375 1.9375 2.296875 1.90625 2.625 1.90625 C 2.953125 1.90625 3.3125 1.9375 3.65625 1.9375 C 3.703125 1.9375 3.828125 1.9375 3.828125 1.734375 C 3.828125 1.625 3.734375 1.625 3.5625 1.625 C 3.09375 1.625 3.09375 1.5625 3.09375 1.46875 C 3.09375 1.390625 3.109375 1.328125 3.125 1.25 Z M 1.75 -0.109375 C 1.140625 -0.109375 1.109375 -0.875 1.109375 -1.046875 C 1.109375 -1.53125 1.390625 -2.609375 1.5625 -3.03125 C 1.875 -3.765625 2.390625 -4.1875 2.796875 -4.1875 C 3.453125 -4.1875 3.59375 -3.375 3.59375 -3.3125 C 3.59375 -3.25 3.046875 -1.0625 3.015625 -1.03125 C 2.859375 -0.75 2.296875 -0.109375 1.75 -0.109375 Z M 1.75 -0.109375 "
   style="stroke:none;" />
</symbol>
<symbol
   id="textext-1573dd96-1"
   overflow="visible">
<path
   id="path4032"
   d="M 2.265625 -4.359375 C 2.265625 -4.46875 2.171875 -4.625 1.984375 -4.625 C 1.796875 -4.625 1.59375 -4.4375 1.59375 -4.234375 C 1.59375 -4.125 1.671875 -3.96875 1.875 -3.96875 C 2.0625 -3.96875 2.265625 -4.171875 2.265625 -4.359375 Z M 0.84375 -0.8125 C 0.8125 -0.71875 0.78125 -0.640625 0.78125 -0.515625 C 0.78125 -0.1875 1.046875 0.0625 1.4375 0.0625 C 2.125 0.0625 2.4375 -0.890625 2.4375 -1 C 2.4375 -1.09375 2.34375 -1.09375 2.328125 -1.09375 C 2.234375 -1.09375 2.21875 -1.046875 2.1875 -0.96875 C 2.03125 -0.40625 1.734375 -0.125 1.453125 -0.125 C 1.3125 -0.125 1.28125 -0.21875 1.28125 -0.375 C 1.28125 -0.53125 1.328125 -0.65625 1.390625 -0.8125 C 1.46875 -1 1.546875 -1.1875 1.609375 -1.375 C 1.671875 -1.546875 1.9375 -2.171875 1.953125 -2.265625 C 1.984375 -2.328125 2 -2.40625 2 -2.484375 C 2 -2.8125 1.71875 -3.078125 1.34375 -3.078125 C 0.640625 -3.078125 0.328125 -2.125 0.328125 -2 C 0.328125 -1.921875 0.421875 -1.921875 0.453125 -1.921875 C 0.546875 -1.921875 0.546875 -1.953125 0.578125 -2.03125 C 0.75 -2.625 1.0625 -2.875 1.3125 -2.875 C 1.421875 -2.875 1.484375 -2.828125 1.484375 -2.640625 C 1.484375 -2.46875 1.453125 -2.375 1.28125 -1.9375 Z M 0.84375 -0.8125 "
   style="stroke:none;" />
</symbol>
</g>
</defs>
<g
   id="textext-1573dd96-2">
<g
   id="g4035"
   style="fill:rgb(0%,0%,0%);fill-opacity:1;">
  <use
   id="use4037"
   y="134.765"
   x="223.432"
   xlink:href="#textext-1573dd96-0" />
</g>
<g
   id="g4039"
   style="fill:rgb(0%,0%,0%);fill-opacity:1;">
  <use
   id="use4041"
   y="136.259"
   x="227.88"
   xlink:href="#textext-1573dd96-1" />
</g>
</g>
</g></g></svg>