<?xml version="1.0" encoding="UTF-8" standalone="no"?>
<!-- Created with Inkscape (http://www.inkscape.org/) -->

<svg
   xmlns:ns0="http://www.iki.fi/pav/software/textext/"
   xmlns:dc="http://purl.org/dc/elements/1.1/"
   xmlns:cc="http://creativecommons.org/ns#"
   xmlns:rdf="http://www.w3.org/1999/02/22-rdf-syntax-ns#"
   xmlns:svg="http://www.w3.org/2000/svg"
   xmlns="http://www.w3.org/2000/svg"
   xmlns:xlink="http://www.w3.org/1999/xlink"
   xmlns:sodipodi="http://sodipodi.sourceforge.net/DTD/sodipodi-0.dtd"
   xmlns:inkscape="http://www.inkscape.org/namespaces/inkscape"
   id="svg2"
   version="1.1"
   inkscape:version="0.48.2 r9819"
   width="560.80176"
   height="441.25"
   xml:space="preserve"
   sodipodi:docname="ioquant3.svg"><metadata
     id="metadata8"><rdf:RDF><cc:Work
         rdf:about=""><dc:format>image/svg+xml</dc:format><dc:type
           rdf:resource="http://purl.org/dc/dcmitype/StillImage" /><dc:title></dc:title></cc:Work></rdf:RDF></metadata><defs
     id="defs6" /><sodipodi:namedview
     pagecolor="#ffffff"
     bordercolor="#666666"
     borderopacity="1"
     objecttolerance="10"
     gridtolerance="10"
     guidetolerance="10"
     inkscape:pageopacity="0"
     inkscape:pageshadow="2"
     inkscape:window-width="1366"
     inkscape:window-height="713"
     id="namedview4"
     showgrid="false"
     inkscape:zoom="1.3335649"
     inkscape:cx="279.78413"
     inkscape:cy="414.07569"
     inkscape:window-x="-3"
     inkscape:window-y="-3"
     inkscape:window-maximized="1"
     inkscape:current-layer="g10"
     fit-margin-top="0"
     fit-margin-left="0"
     fit-margin-right="0"
     fit-margin-bottom="0" /><g
     id="g10"
     inkscape:groupmode="layer"
     inkscape:label="ink_ext_XXXXXX"
     transform="matrix(1.25,0,0,-1.25,-23.229125,456.83397)"><path
       inkscape:connector-curvature="0"
       id="path14-1"
       style="fill:#ffffff;fill-opacity:1;fill-rule:nonzero;stroke:#000000;stroke-opacity:1"
       d="m 20.390692,12.967174 446.334008,0 0,352.000006 -446.334008,0 0,-352.000006 z" /><path
       inkscape:connector-curvature="0"
       id="path14"
       style="fill:none;stroke:#231f20;stroke-width:0.49980003;stroke-linecap:butt;stroke-linejoin:miter;stroke-miterlimit:10;stroke-opacity:1;stroke-dasharray:none"
       d="m 18.8332,46.9172 4.5,0" /><path
       inkscape:connector-curvature="0"
       id="path16"
       style="fill:none;stroke:#231f20;stroke-width:0.49980003;stroke-linecap:butt;stroke-linejoin:miter;stroke-miterlimit:10;stroke-opacity:1;stroke-dasharray:none"
       d="m 465.167,197.833 -4.5,0" /><path
       inkscape:connector-curvature="0"
       id="path18"
       style="fill:none;stroke:#231f20;stroke-width:0.49980003;stroke-linecap:butt;stroke-linejoin:miter;stroke-miterlimit:10;stroke-opacity:1;stroke-dasharray:none"
       d="m 24.1617,58.1711 4.4172,11.9168 4.5,11.75 4.416,11.5 4.5,11.0831 4.4172,10.583 4.5,10 4.416,9.333 4.5,8.667 4.5,7.833 4.4168,7 4.5,6.167 4.416,5.166 4.5,4.25 4.4172,3.167 4.5,2.25 4.5,1.25 4.416,0.166 4.4999,-0.75 4.417,-1.666 4.5,-2.667 4.416,-3.5 4.5,-4.25 4.417,-5.083 4.5,-5.75 4.5,-6.333 4.416,-6.834 4.5,-7.25 4.417,-7.666 4.5,-7.833 4.416,-8 4.5,-8.084 4.417,-7.9159 4.5,-7.8332 4.5,-7.584 4.416,-7.25 4.5,-6.75 4.417,-6.25 4.5,-5.5828 4.416,-4.9172 4.5,-4.166 4.5,-3.4168 4.417,-2.416 4.5,-1.5832 4.416,-0.584 4.5,0.334 4.417,1.416 4.5,2.4172 4.416,3.3328 4.5,4.416 4.5,5.334 4.417,6.25 4.5,7.166 4.416,8 4.5,8.75 4.417,9.5 4.5,10.1671 4.416,10.666 4.5,11.084 4.5,11.5 4.417,11.833 4.5,12 4.416,12 4.5,12.083 4.417,11.917 4.5,11.666 4.5,11.417 4.416,11 4.5,10.5 4.417,9.916 4.5,9.25 4.416,8.5 4.5,7.75 4.417,6.833 4.5,6 4.5,5 4.416,4.084 4.5,3 4.417,2.083 4.5,1 4.416,0.083 4.5,-0.916 4.417,-1.834 4.5,-2.833 4.5,-3.583 4.416,-4.417 4.5,-5.25 4.417,-5.833 4.5,-6.416 4.416,-6.917 4.5,-7.333 4.5,-7.667 4.417,-7.916 4.5,-8 4.416,-8 4.5,-8 4.417,-7.75 4.5,-7.5 4.416,-7.167 4.5,-6.666" /><path
       inkscape:connector-curvature="0"
       id="path20"
       style="fill:none;stroke:#231f20;stroke-width:0.49980003;stroke-linecap:butt;stroke-linejoin:miter;stroke-miterlimit:10;stroke-opacity:1;stroke-dasharray:none"
       d="M 19.6496,46.9172 24.1496,59" /><path
       inkscape:connector-curvature="0"
       id="path48"
       style="fill:none;stroke:#231f20;stroke-width:2;stroke-linecap:butt;stroke-linejoin:miter;stroke-miterlimit:10;stroke-opacity:1;stroke-dasharray:none"
       d="m 338.341,63.3051 31.281,0" /><path
       inkscape:connector-curvature="0"
       id="path50"
       style="fill:none;stroke:#231f20;stroke-width:0.25;stroke-linecap:butt;stroke-linejoin:miter;stroke-miterlimit:10;stroke-opacity:1;stroke-dasharray:none"
       d="m 339.151,95.391 29.677,0" /><path
       inkscape:connector-curvature="0"
       id="path60"
       style="fill:none;stroke:#231f20;stroke-width:1;stroke-linecap:butt;stroke-linejoin:miter;stroke-miterlimit:10;stroke-opacity:1;stroke-dasharray:3, 3;stroke-dashoffset:0"
       d="m 118.639,193.459 55.345,0" /><path
       inkscape:connector-curvature="0"
       id="path62"
       style="fill:none;stroke:#231f20;stroke-width:1;stroke-linecap:butt;stroke-linejoin:miter;stroke-miterlimit:10;stroke-opacity:1;stroke-dasharray:3, 3;stroke-dashoffset:0"
       d="m 118.159,178.674 54.337,-0.003" /><g
       id="g3487"
       ns0:preamble=""
       ns0:text="$\\Delta Q_i$"
       transform="matrix(2,0,0,-2,-262.79314,448.34281)"><defs
         id="defs3489"><g
           id="g3491"><symbol
             id="textext-c7d512c9-0"
             overflow="visible"
             style="overflow:visible"><path
               id="path3494"
               d="m 4.40625,-6.953125 c -0.0625,-0.140625 -0.09375,-0.1875 -0.265625,-0.1875 -0.15625,0 -0.1875,0.046875 -0.25,0.1875 l -3.375,6.75 C 0.46875,-0.109375 0.46875,-0.09375 0.46875,-0.078125 0.46875,0 0.53125,0 0.6875,0 l 6.921875,0 c 0.15625,0 0.21875,0 0.21875,-0.078125 0,-0.015625 0,-0.03125 -0.046875,-0.125 z m -0.578125,0.8125 2.6875,5.390625 -5.375,0 z m 0,0"
               style="stroke:none"
               inkscape:connector-curvature="0" /></symbol><symbol
             id="textext-c7d512c9-1"
             overflow="visible"
             style="overflow:visible"><path
               id="path3497"
               d="M 4.359375,-0.0625 C 5.90625,-0.640625 7.375,-2.421875 7.375,-4.34375 c 0,-1.609375 -1.0625,-2.6875 -2.546875,-2.6875 -2.140625,0 -4.34375,2.265625 -4.34375,4.59375 0,1.65625 1.125,2.65625 2.5625,2.65625 0.25,0 0.578125,-0.046875 0.96875,-0.15625 -0.03125,0.625 -0.03125,0.640625 -0.03125,0.78125 0,0.3125 0,1.09375 0.828125,1.09375 1.171875,0 1.65625,-1.828125 1.65625,-1.9375 0,-0.0625 -0.0625,-0.09375 -0.109375,-0.09375 -0.078125,0 -0.09375,0.046875 -0.125,0.109375 C 6,0.71875 5.421875,0.96875 5.078125,0.96875 c -0.46875,0 -0.609375,-0.265625 -0.71875,-1.03125 z m -1.875,-0.078125 c -0.78125,-0.3125 -1.125,-1.078125 -1.125,-1.984375 0,-0.6875 0.265625,-2.109375 1.015625,-3.171875 C 3.109375,-6.3125 4.046875,-6.78125 4.78125,-6.78125 5.765625,-6.78125 6.5,-6 6.5,-4.671875 c 0,1 -0.515625,3.34375 -2.1875,4.265625 -0.046875,-0.34375 -0.140625,-1.0625 -0.875,-1.0625 -0.53125,0 -1.015625,0.484375 -1.015625,1.015625 0,0.1875 0.0625,0.296875 0.0625,0.3125 z M 3.09375,-0.03125 c -0.140625,0 -0.453125,0 -0.453125,-0.421875 0,-0.40625 0.375,-0.796875 0.796875,-0.796875 0.421875,0 0.609375,0.234375 0.609375,0.84375 0,0.140625 -0.015625,0.15625 -0.109375,0.203125 C 3.671875,-0.09375 3.375,-0.03125 3.09375,-0.03125 z m 0,0"
               style="stroke:none"
               inkscape:connector-curvature="0" /></symbol><symbol
             id="textext-c7d512c9-2"
             overflow="visible"
             style="overflow:visible"><path
               id="path3500"
               d="m 2.265625,-4.359375 c 0,-0.109375 -0.09375,-0.265625 -0.28125,-0.265625 -0.1875,0 -0.390625,0.1875 -0.390625,0.390625 0,0.109375 0.078125,0.265625 0.28125,0.265625 0.1875,0 0.390625,-0.203125 0.390625,-0.390625 z M 0.84375,-0.8125 c -0.03125,0.09375 -0.0625,0.171875 -0.0625,0.296875 0,0.328125 0.265625,0.578125 0.65625,0.578125 0.6875,0 1,-0.953125 1,-1.0625 0,-0.09375 -0.09375,-0.09375 -0.109375,-0.09375 -0.09375,0 -0.109375,0.046875 -0.140625,0.125 -0.15625,0.5625 -0.453125,0.84375 -0.734375,0.84375 -0.140625,0 -0.171875,-0.09375 -0.171875,-0.25 0,-0.15625 0.046875,-0.28125 0.109375,-0.4375 C 1.46875,-1 1.546875,-1.1875 1.609375,-1.375 1.671875,-1.546875 1.9375,-2.171875 1.953125,-2.265625 1.984375,-2.328125 2,-2.40625 2,-2.484375 2,-2.8125 1.71875,-3.078125 1.34375,-3.078125 0.640625,-3.078125 0.328125,-2.125 0.328125,-2 c 0,0.078125 0.09375,0.078125 0.125,0.078125 0.09375,0 0.09375,-0.03125 0.125,-0.109375 C 0.75,-2.625 1.0625,-2.875 1.3125,-2.875 c 0.109375,0 0.171875,0.046875 0.171875,0.234375 0,0.171875 -0.03125,0.265625 -0.203125,0.703125 z m 0,0"
               style="stroke:none"
               inkscape:connector-curvature="0" /></symbol></g></defs><g
         id="textext-c7d512c9-3"><g
           id="g3503"
           style="fill:#000000;fill-opacity:1"><use
             id="use3505"
             y="134.765"
             x="223.43201"
             xlink:href="#textext-c7d512c9-0"
             width="605"
             height="486.25" /></g><g
           id="g3507"
           style="fill:#000000;fill-opacity:1"><use
             id="use3509"
             y="134.765"
             x="231.73399"
             xlink:href="#textext-c7d512c9-1"
             width="605"
             height="486.25" /></g><g
           id="g3511"
           style="fill:#000000;fill-opacity:1"><use
             id="use3513"
             y="136.259"
             x="239.61"
             xlink:href="#textext-c7d512c9-2"
             width="605"
             height="486.25" /></g></g></g><g
       ns0:text="$x_i$"
       ns0:preamble=""
       transform="matrix(2,0,0,-2,-69.68395,360.4017)"
       id="g3754"><defs
         id="defs3756"><g
           id="g3758"><symbol
             style="overflow:visible"
             overflow="visible"
             id="textext-08174465-0"><path
               inkscape:connector-curvature="0"
               style="stroke:none"
               d="M 3.328125,-3.015625 C 3.390625,-3.265625 3.625,-4.1875 4.3125,-4.1875 c 0.046875,0 0.296875,0 0.5,0.125 C 4.53125,-4 4.34375,-3.765625 4.34375,-3.515625 c 0,0.15625 0.109375,0.34375 0.375,0.34375 0.21875,0 0.53125,-0.171875 0.53125,-0.578125 0,-0.515625 -0.578125,-0.65625 -0.921875,-0.65625 -0.578125,0 -0.921875,0.53125 -1.046875,0.75 -0.25,-0.65625 -0.78125,-0.75 -1.078125,-0.75 -1.03125,0 -1.609375,1.28125 -1.609375,1.53125 0,0.109375 0.109375,0.109375 0.125,0.109375 0.078125,0 0.109375,-0.03125 0.125,-0.109375 0.34375,-1.0625 1,-1.3125 1.34375,-1.3125 0.1875,0 0.53125,0.09375 0.53125,0.671875 0,0.3125 -0.171875,0.96875 -0.53125,2.375 -0.15625,0.609375 -0.515625,1.03125 -0.953125,1.03125 -0.0625,0 -0.28125,0 -0.5,-0.125 0.25,-0.0625 0.46875,-0.265625 0.46875,-0.546875 0,-0.265625 -0.21875,-0.34375 -0.359375,-0.34375 -0.3125,0 -0.546875,0.25 -0.546875,0.578125 0,0.453125 0.484375,0.65625 0.921875,0.65625 0.671875,0 1.03125,-0.703125 1.046875,-0.75 0.125,0.359375 0.484375,0.75 1.078125,0.75 1.03125,0 1.59375,-1.28125 1.59375,-1.53125 0,-0.109375 -0.078125,-0.109375 -0.109375,-0.109375 -0.09375,0 -0.109375,0.046875 -0.140625,0.109375 -0.328125,1.078125 -1,1.3125 -1.3125,1.3125 -0.390625,0 -0.546875,-0.3125 -0.546875,-0.65625 0,-0.21875 0.046875,-0.4375 0.15625,-0.875 z m 0,0"
               id="path3761" /></symbol><symbol
             style="overflow:visible"
             overflow="visible"
             id="textext-08174465-1"><path
               inkscape:connector-curvature="0"
               style="stroke:none"
               d="m 2.265625,-4.359375 c 0,-0.109375 -0.09375,-0.265625 -0.28125,-0.265625 -0.1875,0 -0.390625,0.1875 -0.390625,0.390625 0,0.109375 0.078125,0.265625 0.28125,0.265625 0.1875,0 0.390625,-0.203125 0.390625,-0.390625 z M 0.84375,-0.8125 c -0.03125,0.09375 -0.0625,0.171875 -0.0625,0.296875 0,0.328125 0.265625,0.578125 0.65625,0.578125 0.6875,0 1,-0.953125 1,-1.0625 0,-0.09375 -0.09375,-0.09375 -0.109375,-0.09375 -0.09375,0 -0.109375,0.046875 -0.140625,0.125 -0.15625,0.5625 -0.453125,0.84375 -0.734375,0.84375 -0.140625,0 -0.171875,-0.09375 -0.171875,-0.25 0,-0.15625 0.046875,-0.28125 0.109375,-0.4375 C 1.46875,-1 1.546875,-1.1875 1.609375,-1.375 1.671875,-1.546875 1.9375,-2.171875 1.953125,-2.265625 1.984375,-2.328125 2,-2.40625 2,-2.484375 2,-2.8125 1.71875,-3.078125 1.34375,-3.078125 0.640625,-3.078125 0.328125,-2.125 0.328125,-2 c 0,0.078125 0.09375,0.078125 0.125,0.078125 0.09375,0 0.09375,-0.03125 0.125,-0.109375 C 0.75,-2.625 1.0625,-2.875 1.3125,-2.875 c 0.109375,0 0.171875,0.046875 0.171875,0.234375 0,0.171875 -0.03125,0.265625 -0.203125,0.703125 z m 0,0"
               id="path3764" /></symbol></g></defs><g
         id="textext-08174465-2"><g
           style="fill:#000000;fill-opacity:1"
           id="g3767"><use
             height="486.25"
             width="605"
             xlink:href="#textext-08174465-0"
             x="223.43201"
             y="134.765"
             id="use3769" /></g><g
           style="fill:#000000;fill-opacity:1"
           id="g3771"><use
             height="486.25"
             width="605"
             xlink:href="#textext-08174465-1"
             x="229.12601"
             y="136.259"
             id="use3773" /></g></g></g><g
       id="g4022"
       transform="matrix(2,0,0,-2,-69.62426,330.26012)"
       ns0:preamble=""
       ns0:text="$q_i$"><defs
         id="defs4024"><g
           id="g4026"><symbol
             style="overflow:visible"
             id="textext-1573dd96-0"
             overflow="visible"><path
               inkscape:connector-curvature="0"
               id="path4029"
               d="m 4.5,-4.296875 c 0,-0.046875 -0.03125,-0.09375 -0.09375,-0.09375 -0.109375,0 -0.515625,0.390625 -0.671875,0.6875 C 3.515625,-4.25 3.125,-4.40625 2.796875,-4.40625 c -1.171875,0 -2.390625,1.46875 -2.390625,2.921875 0,0.96875 0.578125,1.59375 1.3125,1.59375 0.421875,0 0.8125,-0.234375 1.171875,-0.59375 -0.09375,0.34375 -0.421875,1.6875 -0.453125,1.78125 -0.078125,0.28125 -0.15625,0.3125 -0.71875,0.328125 -0.125,0 -0.21875,0 -0.21875,0.203125 0,0 0,0.109375 0.125,0.109375 0.3125,0 0.671875,-0.03125 1,-0.03125 0.328125,0 0.6875,0.03125 1.03125,0.03125 0.046875,0 0.171875,0 0.171875,-0.203125 C 3.828125,1.625 3.734375,1.625 3.5625,1.625 3.09375,1.625 3.09375,1.5625 3.09375,1.46875 3.09375,1.390625 3.109375,1.328125 3.125,1.25 z m -2.75,4.1875 c -0.609375,0 -0.640625,-0.765625 -0.640625,-0.9375 0,-0.484375 0.28125,-1.5625 0.453125,-1.984375 0.3125,-0.734375 0.828125,-1.15625 1.234375,-1.15625 0.65625,0 0.796875,0.8125 0.796875,0.875 0,0.0625 -0.546875,2.25 -0.578125,2.28125 C 2.859375,-0.75 2.296875,-0.109375 1.75,-0.109375 z m 0,0"
               style="stroke:none" /></symbol><symbol
             style="overflow:visible"
             id="textext-1573dd96-1"
             overflow="visible"><path
               inkscape:connector-curvature="0"
               id="path4032"
               d="m 2.265625,-4.359375 c 0,-0.109375 -0.09375,-0.265625 -0.28125,-0.265625 -0.1875,0 -0.390625,0.1875 -0.390625,0.390625 0,0.109375 0.078125,0.265625 0.28125,0.265625 0.1875,0 0.390625,-0.203125 0.390625,-0.390625 z M 0.84375,-0.8125 c -0.03125,0.09375 -0.0625,0.171875 -0.0625,0.296875 0,0.328125 0.265625,0.578125 0.65625,0.578125 0.6875,0 1,-0.953125 1,-1.0625 0,-0.09375 -0.09375,-0.09375 -0.109375,-0.09375 -0.09375,0 -0.109375,0.046875 -0.140625,0.125 -0.15625,0.5625 -0.453125,0.84375 -0.734375,0.84375 -0.140625,0 -0.171875,-0.09375 -0.171875,-0.25 0,-0.15625 0.046875,-0.28125 0.109375,-0.4375 C 1.46875,-1 1.546875,-1.1875 1.609375,-1.375 1.671875,-1.546875 1.9375,-2.171875 1.953125,-2.265625 1.984375,-2.328125 2,-2.40625 2,-2.484375 2,-2.8125 1.71875,-3.078125 1.34375,-3.078125 0.640625,-3.078125 0.328125,-2.125 0.328125,-2 c 0,0.078125 0.09375,0.078125 0.125,0.078125 0.09375,0 0.09375,-0.03125 0.125,-0.109375 C 0.75,-2.625 1.0625,-2.875 1.3125,-2.875 c 0.109375,0 0.171875,0.046875 0.171875,0.234375 0,0.171875 -0.03125,0.265625 -0.203125,0.703125 z m 0,0"
               style="stroke:none" /></symbol></g></defs><g
         id="textext-1573dd96-2"><g
           id="g4035"
           style="fill:#000000;fill-opacity:1"><use
             height="1052.3622"
             width="744.09448"
             id="use4037"
             y="134.765"
             x="223.43201"
             xlink:href="#textext-1573dd96-0" /></g><g
           id="g4039"
           style="fill:#000000;fill-opacity:1"><use
             height="1052.3622"
             width="744.09448"
             id="use4041"
             y="136.259"
             x="227.88"
             xlink:href="#textext-1573dd96-1" /></g></g></g><g
       transform="matrix(1.0070196,0,0,1,15.799511,-6.4260968)"
       id="g3117"><path
         d="m 5,54 5,0"
         style="fill:none;stroke:#363639;stroke-width:1.99301708;stroke-linecap:square;stroke-linejoin:miter;stroke-miterlimit:2;stroke-opacity:1;stroke-dasharray:none"
         id="path62-1"
         inkscape:connector-curvature="0" /><path
         d="m 12.2379,71.9488 c 8.9801,29.6862 13.2191,42.4052 16.959,50.8772 4.0941,9.276 15.3672,31.36 21.4812,39.572 5.5789,7.492 11.3059,18.089 37.3098,37.309"
         style="fill:none;stroke:#363639;stroke-width:1.99301708;stroke-linecap:square;stroke-linejoin:miter;stroke-miterlimit:2;stroke-opacity:1;stroke-dasharray:none"
         id="path84"
         inkscape:connector-curvature="0" /><path
         d="m 89.1191,183.879 c 16.9589,-7.914 23.2279,-18.431 24.8729,-20.351 6.784,-7.914 18.81,-22.982 23.743,-29.396 3.954,-5.14 13.567,-18.089 24.873,-36.1789"
         style="fill:none;stroke:#363639;stroke-width:1.99301708;stroke-linecap:square;stroke-linejoin:miter;stroke-miterlimit:2;stroke-opacity:1;stroke-dasharray:none"
         id="path86"
         inkscape:connector-curvature="0" /><path
         d="m 162.608,80.9941 c 15.315,-25.1109 24.589,-39.6832 32.788,-42.9632 5.653,-2.261 15.828,-4.5219 22.612,-4.5219"
         style="fill:none;stroke:#363639;stroke-width:1.99301708;stroke-linecap:square;stroke-linejoin:miter;stroke-miterlimit:2;stroke-opacity:1;stroke-dasharray:none"
         id="path88"
         inkscape:connector-curvature="0" /><path
         d="m 219.138,48.207 c 26.004,24.8731 36.484,44.85 41.832,53.138 5.422,8.4 10.487,20.394 14.698,29.396 2.602,5.561 7.957,19.164 10.176,24.873 1.417,3.647 11.31,28.238 15.828,40.702"
         style="fill:none;stroke:#363639;stroke-width:1.99301708;stroke-linecap:square;stroke-linejoin:miter;stroke-miterlimit:2;stroke-opacity:1;stroke-dasharray:none"
         id="path90"
         inkscape:connector-curvature="0" /><path
         d="m 301.672,226.842 c 19.22,55.399 32.788,75.75 41.832,87.056 4.523,5.653 13.568,11.306 24.874,16.959"
         style="fill:none;stroke:#363639;stroke-width:1.99301708;stroke-linecap:square;stroke-linejoin:miter;stroke-miterlimit:2;stroke-opacity:1;stroke-dasharray:none"
         id="path92"
         inkscape:connector-curvature="0" /><path
         d="m 370.639,311.637 c 21.63,-14.564 29.545,-25.87 35.049,-31.657 7.136,-7.504 19.22,-22.612 33.918,-44.093"
         style="fill:none;stroke:#363639;stroke-width:1.99301708;stroke-linecap:square;stroke-linejoin:miter;stroke-miterlimit:2;stroke-opacity:1;stroke-dasharray:none"
         id="path94"
         inkscape:connector-curvature="0" /></g></g></svg>