<?xml version="1.0" encoding="UTF-8" standalone="no"?>
<!-- Created with Inkscape (http://www.inkscape.org/) -->

<svg
   xmlns:ns0="http://www.iki.fi/pav/software/textext/"
   xmlns:dc="http://purl.org/dc/elements/1.1/"
   xmlns:cc="http://creativecommons.org/ns#"
   xmlns:rdf="http://www.w3.org/1999/02/22-rdf-syntax-ns#"
   xmlns:svg="http://www.w3.org/2000/svg"
   xmlns="http://www.w3.org/2000/svg"
   xmlns:xlink="http://www.w3.org/1999/xlink"
   xmlns:sodipodi="http://sodipodi.sourceforge.net/DTD/sodipodi-0.dtd"
   xmlns:inkscape="http://www.inkscape.org/namespaces/inkscape"
   id="svg2"
   version="1.1"
   inkscape:version="0.48.2 r9819"
   width="587.5"
   height="473.75"
   xml:space="preserve"
   sodipodi:docname="qosc2.svg"><sodipodi:namedview
     pagecolor="#ffffff"
     bordercolor="#666666"
     borderopacity="1"
     objecttolerance="10"
     gridtolerance="10"
     guidetolerance="10"
     inkscape:pageopacity="0"
     inkscape:pageshadow="2"
     inkscape:window-width="1366"
     inkscape:window-height="713"
     id="namedview4"
     showgrid="false"
     inkscape:zoom="1.0556183"
     inkscape:cx="294.32287"
     inkscape:cy="237.39588"
     inkscape:window-x="-3"
     inkscape:window-y="-3"
     inkscape:window-maximized="1"
     inkscape:current-layer="g10" /><metadata
     id="metadata8"><rdf:RDF><cc:Work
         rdf:about=""><dc:format>image/svg+xml</dc:format><dc:type
           rdf:resource="http://purl.org/dc/dcmitype/StillImage" /><dc:title></dc:title></cc:Work></rdf:RDF></metadata><defs
     id="defs6"><clipPath
       id="clipPath18"
       clipPathUnits="userSpaceOnUse"><path
         id="path20"
         d="m 9.16797,8.33203 4690.83003,0 0,3781.66997 -4690.83003,0 0,-3781.66997 z" /></clipPath><clipPath
       id="clipPath276"
       clipPathUnits="userSpaceOnUse"><path
         id="path278"
         d="m 199.168,3695.83 0,-3520.83 4463.332,0 0,3520.83 -4463.332,0 z" /></clipPath><clipPath
       id="clipPath288"
       clipPathUnits="userSpaceOnUse"><path
         id="path290"
         d="m 9,8 0,3782 4691,0 L 4700,8 9,8 z" /></clipPath><clipPath
       id="clipPath276-0"
       clipPathUnits="userSpaceOnUse"><path
         id="path278-3"
         d="m 199.168,3695.83 0,-3520.83 4463.332,0 0,3520.83 -4463.332,0 z"
         inkscape:connector-curvature="0" /></clipPath><clipPath
       id="clipPath276-3"
       clipPathUnits="userSpaceOnUse"><path
         id="path278-4"
         d="m 199.168,3695.83 0,-3520.83 4463.332,0 0,3520.83 -4463.332,0 z"
         inkscape:connector-curvature="0" /></clipPath><clipPath
       id="clipPath296"
       clipPathUnits="userSpaceOnUse"><path
         id="path298"
         d="m 9,8 0,3782 4691,0 L 4700,8 9,8 z"
         inkscape:connector-curvature="0" /></clipPath></defs><g
     transform="matrix(1.25,0,0,-1.25,0,473.75)"
     inkscape:label="ink_ext_XXXXXX"
     inkscape:groupmode="layer"
     id="g10"><g
       transform="scale(0.1,0.1)"
       id="g14"><g
         id="g16"
         clip-path="url(#clipPath18)"><path
           d="m 0,0 5210.83,0 0,4020 L 0,4020 0,0 z"
           style="fill:#ffffff;fill-opacity:1;fill-rule:nonzero;stroke:none"
           id="path22"
           inkscape:connector-curvature="0" /><path
           d="m 199.168,175.832 4462.5,0 0,3520 -4462.5,0 0,-3520 z"
           style="fill:#ffffff;fill-opacity:1;fill-rule:evenodd;stroke:none"
           id="path24"
           inkscape:connector-curvature="0" /><path
           d="m 199.168,175.832 0,3519.998 4462.502,0 0,-3519.998 -4462.502,0"
           style="fill:none;stroke:#ffffff;stroke-width:5;stroke-linecap:butt;stroke-linejoin:round;stroke-miterlimit:10;stroke-opacity:1;stroke-dasharray:none"
           id="path26"
           inkscape:connector-curvature="0" /><path
           d="m 199.168,175.832 4462.502,0"
           style="fill:none;stroke:#000000;stroke-width:3.33332992;stroke-linecap:butt;stroke-linejoin:round;stroke-miterlimit:10;stroke-opacity:1;stroke-dasharray:5, 40;stroke-dashoffset:0"
           id="path28"
           inkscape:connector-curvature="0" /><path
           d="m 4661.67,175.832 0,0"
           style="fill:none;stroke:#000000;stroke-width:3.33332992;stroke-linecap:butt;stroke-linejoin:round;stroke-miterlimit:10;stroke-opacity:1;stroke-dasharray:5, 40;stroke-dashoffset:0"
           id="path30"
           inkscape:connector-curvature="0" /><path
           d="m 199.168,527.5 4462.502,0"
           style="fill:none;stroke:#000000;stroke-width:3.33332992;stroke-linecap:butt;stroke-linejoin:round;stroke-miterlimit:10;stroke-opacity:1;stroke-dasharray:5, 40;stroke-dashoffset:0"
           id="path32"
           inkscape:connector-curvature="0" /><path
           d="m 4661.67,527.5 0,0"
           style="fill:none;stroke:#000000;stroke-width:3.33332992;stroke-linecap:butt;stroke-linejoin:round;stroke-miterlimit:10;stroke-opacity:1;stroke-dasharray:5, 40;stroke-dashoffset:0"
           id="path34"
           inkscape:connector-curvature="0" /><path
           d="m 199.168,880 4462.502,0"
           style="fill:none;stroke:#000000;stroke-width:3.33332992;stroke-linecap:butt;stroke-linejoin:round;stroke-miterlimit:10;stroke-opacity:1;stroke-dasharray:5, 40;stroke-dashoffset:0"
           id="path36"
           inkscape:connector-curvature="0" /><path
           d="m 4661.67,880 0,0"
           style="fill:none;stroke:#000000;stroke-width:3.33332992;stroke-linecap:butt;stroke-linejoin:round;stroke-miterlimit:10;stroke-opacity:1;stroke-dasharray:5, 40;stroke-dashoffset:0"
           id="path38"
           inkscape:connector-curvature="0" /><path
           d="m 199.168,1231.67 4462.502,0"
           style="fill:none;stroke:#000000;stroke-width:3.33332992;stroke-linecap:butt;stroke-linejoin:round;stroke-miterlimit:10;stroke-opacity:1;stroke-dasharray:5, 40;stroke-dashoffset:0"
           id="path40"
           inkscape:connector-curvature="0" /><path
           d="m 4661.67,1231.67 0,0"
           style="fill:none;stroke:#000000;stroke-width:3.33332992;stroke-linecap:butt;stroke-linejoin:round;stroke-miterlimit:10;stroke-opacity:1;stroke-dasharray:5, 40;stroke-dashoffset:0"
           id="path42"
           inkscape:connector-curvature="0" /><path
           d="m 199.168,1584.17 4462.502,0"
           style="fill:none;stroke:#000000;stroke-width:3.33332992;stroke-linecap:butt;stroke-linejoin:round;stroke-miterlimit:10;stroke-opacity:1;stroke-dasharray:5, 40;stroke-dashoffset:0"
           id="path44"
           inkscape:connector-curvature="0" /><path
           d="m 4661.67,1584.17 0,0"
           style="fill:none;stroke:#000000;stroke-width:3.33332992;stroke-linecap:butt;stroke-linejoin:round;stroke-miterlimit:10;stroke-opacity:1;stroke-dasharray:5, 40;stroke-dashoffset:0"
           id="path46"
           inkscape:connector-curvature="0" /><path
           d="m 199.168,1935.83 4462.502,0"
           style="fill:none;stroke:#000000;stroke-width:3.33332992;stroke-linecap:butt;stroke-linejoin:round;stroke-miterlimit:10;stroke-opacity:1;stroke-dasharray:5, 40;stroke-dashoffset:0"
           id="path48"
           inkscape:connector-curvature="0" /><path
           d="m 4661.67,1935.83 0,0"
           style="fill:none;stroke:#000000;stroke-width:3.33332992;stroke-linecap:butt;stroke-linejoin:round;stroke-miterlimit:10;stroke-opacity:1;stroke-dasharray:5, 40;stroke-dashoffset:0"
           id="path50"
           inkscape:connector-curvature="0" /><path
           d="m 199.168,2287.5 4462.502,0"
           style="fill:none;stroke:#000000;stroke-width:3.33332992;stroke-linecap:butt;stroke-linejoin:round;stroke-miterlimit:10;stroke-opacity:1;stroke-dasharray:5, 40;stroke-dashoffset:0"
           id="path52"
           inkscape:connector-curvature="0" /><path
           d="m 4661.67,2287.5 0,0"
           style="fill:none;stroke:#000000;stroke-width:3.33332992;stroke-linecap:butt;stroke-linejoin:round;stroke-miterlimit:10;stroke-opacity:1;stroke-dasharray:5, 40;stroke-dashoffset:0"
           id="path54"
           inkscape:connector-curvature="0" /><path
           d="m 199.168,2640 4462.502,0"
           style="fill:none;stroke:#000000;stroke-width:3.33332992;stroke-linecap:butt;stroke-linejoin:round;stroke-miterlimit:10;stroke-opacity:1;stroke-dasharray:5, 40;stroke-dashoffset:0"
           id="path56"
           inkscape:connector-curvature="0" /><path
           d="m 4661.67,2640 0,0"
           style="fill:none;stroke:#000000;stroke-width:3.33332992;stroke-linecap:butt;stroke-linejoin:round;stroke-miterlimit:10;stroke-opacity:1;stroke-dasharray:5, 40;stroke-dashoffset:0"
           id="path58"
           inkscape:connector-curvature="0" /><path
           d="m 199.168,2991.67 4462.502,0"
           style="fill:none;stroke:#000000;stroke-width:3.33332992;stroke-linecap:butt;stroke-linejoin:round;stroke-miterlimit:10;stroke-opacity:1;stroke-dasharray:5, 40;stroke-dashoffset:0"
           id="path60"
           inkscape:connector-curvature="0" /><path
           d="m 4661.67,2991.67 0,0"
           style="fill:none;stroke:#000000;stroke-width:3.33332992;stroke-linecap:butt;stroke-linejoin:round;stroke-miterlimit:10;stroke-opacity:1;stroke-dasharray:5, 40;stroke-dashoffset:0"
           id="path62"
           inkscape:connector-curvature="0" /><path
           d="m 199.168,3344.17 4462.502,0"
           style="fill:none;stroke:#000000;stroke-width:3.33332992;stroke-linecap:butt;stroke-linejoin:round;stroke-miterlimit:10;stroke-opacity:1;stroke-dasharray:5, 40;stroke-dashoffset:0"
           id="path64"
           inkscape:connector-curvature="0" /><path
           d="m 4661.67,3344.17 0,0"
           style="fill:none;stroke:#000000;stroke-width:3.33332992;stroke-linecap:butt;stroke-linejoin:round;stroke-miterlimit:10;stroke-opacity:1;stroke-dasharray:5, 40;stroke-dashoffset:0"
           id="path66"
           inkscape:connector-curvature="0" /><path
           d="m 199.168,3695.83 4462.502,0"
           style="fill:none;stroke:#000000;stroke-width:3.33332992;stroke-linecap:butt;stroke-linejoin:round;stroke-miterlimit:10;stroke-opacity:1;stroke-dasharray:5, 40;stroke-dashoffset:0"
           id="path68"
           inkscape:connector-curvature="0" /><path
           d="m 4661.67,3695.83 0,0"
           style="fill:none;stroke:#000000;stroke-width:3.33332992;stroke-linecap:butt;stroke-linejoin:round;stroke-miterlimit:10;stroke-opacity:1;stroke-dasharray:5, 40;stroke-dashoffset:0"
           id="path70"
           inkscape:connector-curvature="0" /><path
           d="m 199.168,3695.83 4462.502,0"
           style="fill:none;stroke:#000000;stroke-width:5;stroke-linecap:butt;stroke-linejoin:round;stroke-miterlimit:10;stroke-opacity:1;stroke-dasharray:none"
           id="path72"
           inkscape:connector-curvature="0" /><path
           d="m 199.168,175.832 4462.502,0"
           style="fill:none;stroke:#000000;stroke-width:5;stroke-linecap:butt;stroke-linejoin:round;stroke-miterlimit:10;stroke-opacity:1;stroke-dasharray:none"
           id="path74"
           inkscape:connector-curvature="0" /><path
           d="m 4661.67,175.832 0,3519.998"
           style="fill:none;stroke:#000000;stroke-width:5;stroke-linecap:butt;stroke-linejoin:round;stroke-miterlimit:10;stroke-opacity:1;stroke-dasharray:none"
           id="path76"
           inkscape:connector-curvature="0" /><path
           d="m 199.168,175.832 0,3519.998"
           style="fill:none;stroke:#000000;stroke-width:5;stroke-linecap:butt;stroke-linejoin:round;stroke-miterlimit:10;stroke-opacity:1;stroke-dasharray:none"
           id="path78"
           inkscape:connector-curvature="0" /><path
           d="m 199.168,175.832 4462.502,0"
           style="fill:none;stroke:#000000;stroke-width:5;stroke-linecap:butt;stroke-linejoin:round;stroke-miterlimit:10;stroke-opacity:1;stroke-dasharray:none"
           id="path80"
           inkscape:connector-curvature="0" /><path
           d="m 199.168,175.832 0,3519.998"
           style="fill:none;stroke:#000000;stroke-width:5;stroke-linecap:butt;stroke-linejoin:round;stroke-miterlimit:10;stroke-opacity:1;stroke-dasharray:none"
           id="path82"
           inkscape:connector-curvature="0" /><path
           d="m 199.168,175.832 0,45"
           style="fill:none;stroke:#000000;stroke-width:5;stroke-linecap:butt;stroke-linejoin:round;stroke-miterlimit:10;stroke-opacity:1;stroke-dasharray:none"
           id="path84"
           inkscape:connector-curvature="0" /><path
           d="m 199.168,3695.83 0,-45"
           style="fill:none;stroke:#000000;stroke-width:5;stroke-linecap:butt;stroke-linejoin:round;stroke-miterlimit:10;stroke-opacity:1;stroke-dasharray:none"
           id="path86"
           inkscape:connector-curvature="0" /><g
           id="g88"
           transform="scale(10,10)"><text
   transform="matrix(1,0,0,-1,17.1668,5.4168)"
   id="text90"><tspan
     style="font-size:10px;font-variant:normal;font-weight:normal;writing-mode:lr-tb;fill:#000000;fill-opacity:1;fill-rule:nonzero;stroke:none;font-family:Helvetica;-inkscape-font-specification:Helvetica"
     x="0"
     y="0"
     id="tspan92">0</tspan></text>













</g><path
           d="m 868.332,175.832 0,45"
           style="fill:none;stroke:#000000;stroke-width:5;stroke-linecap:butt;stroke-linejoin:round;stroke-miterlimit:10;stroke-opacity:1;stroke-dasharray:none"
           id="path94"
           inkscape:connector-curvature="0" /><path
           d="m 868.332,3695.83 0,-45"
           style="fill:none;stroke:#000000;stroke-width:5;stroke-linecap:butt;stroke-linejoin:round;stroke-miterlimit:10;stroke-opacity:1;stroke-dasharray:none"
           id="path96"
           inkscape:connector-curvature="0" /><g
           id="g98"
           transform="scale(10,10)"><text
   transform="matrix(1,0,0,-1,79.9168,5.4168)"
   id="text100"><tspan
     style="font-size:10px;font-variant:normal;font-weight:normal;writing-mode:lr-tb;fill:#000000;fill-opacity:1;fill-rule:nonzero;stroke:none;font-family:Helvetica;-inkscape-font-specification:Helvetica"
     x="0 5.5599999 8.3400002"
     y="0"
     sodipodi:role="line"
     id="tspan102">0.1</tspan></text>













</g><path
           d="m 1537.5,175.832 0,45"
           style="fill:none;stroke:#000000;stroke-width:5;stroke-linecap:butt;stroke-linejoin:round;stroke-miterlimit:10;stroke-opacity:1;stroke-dasharray:none"
           id="path104"
           inkscape:connector-curvature="0" /><path
           d="m 1537.5,3695.83 0,-45"
           style="fill:none;stroke:#000000;stroke-width:5;stroke-linecap:butt;stroke-linejoin:round;stroke-miterlimit:10;stroke-opacity:1;stroke-dasharray:none"
           id="path106"
           inkscape:connector-curvature="0" /><g
           id="g108"
           transform="scale(10,10)"><text
   transform="matrix(1,0,0,-1,146.833,5.4168)"
   id="text110"><tspan
     style="font-size:10px;font-variant:normal;font-weight:normal;writing-mode:lr-tb;fill:#000000;fill-opacity:1;fill-rule:nonzero;stroke:none;font-family:Helvetica;-inkscape-font-specification:Helvetica"
     x="0 5.5599999 8.3400002"
     y="0"
     sodipodi:role="line"
     id="tspan112">0.2</tspan></text>













</g><path
           d="m 2207.5,175.832 0,45"
           style="fill:none;stroke:#000000;stroke-width:5;stroke-linecap:butt;stroke-linejoin:round;stroke-miterlimit:10;stroke-opacity:1;stroke-dasharray:none"
           id="path114"
           inkscape:connector-curvature="0" /><path
           d="m 2207.5,3695.83 0,-45"
           style="fill:none;stroke:#000000;stroke-width:5;stroke-linecap:butt;stroke-linejoin:round;stroke-miterlimit:10;stroke-opacity:1;stroke-dasharray:none"
           id="path116"
           inkscape:connector-curvature="0" /><g
           id="g118"
           transform="scale(10,10)"><text
   transform="matrix(1,0,0,-1,213.833,5.4168)"
   id="text120"><tspan
     style="font-size:10px;font-variant:normal;font-weight:normal;writing-mode:lr-tb;fill:#000000;fill-opacity:1;fill-rule:nonzero;stroke:none;font-family:Helvetica;-inkscape-font-specification:Helvetica"
     x="0 5.5599999 8.3400002"
     y="0"
     sodipodi:role="line"
     id="tspan122">0.3</tspan></text>













</g><path
           d="m 2876.67,175.832 0,45"
           style="fill:none;stroke:#000000;stroke-width:5;stroke-linecap:butt;stroke-linejoin:round;stroke-miterlimit:10;stroke-opacity:1;stroke-dasharray:none"
           id="path124"
           inkscape:connector-curvature="0" /><path
           d="m 2876.67,3695.83 0,-45"
           style="fill:none;stroke:#000000;stroke-width:5;stroke-linecap:butt;stroke-linejoin:round;stroke-miterlimit:10;stroke-opacity:1;stroke-dasharray:none"
           id="path126"
           inkscape:connector-curvature="0" /><g
           id="g128"
           transform="scale(10,10)"><text
   transform="matrix(1,0,0,-1,280.75,5.4168)"
   id="text130"><tspan
     style="font-size:10px;font-variant:normal;font-weight:normal;writing-mode:lr-tb;fill:#000000;fill-opacity:1;fill-rule:nonzero;stroke:none;font-family:Helvetica;-inkscape-font-specification:Helvetica"
     x="0 5.5599999 8.3400002"
     y="0"
     sodipodi:role="line"
     id="tspan132">0.4</tspan></text>













</g><path
           d="m 3545.83,175.832 0,45"
           style="fill:none;stroke:#000000;stroke-width:5;stroke-linecap:butt;stroke-linejoin:round;stroke-miterlimit:10;stroke-opacity:1;stroke-dasharray:none"
           id="path134"
           inkscape:connector-curvature="0" /><path
           d="m 3545.83,3695.83 0,-45"
           style="fill:none;stroke:#000000;stroke-width:5;stroke-linecap:butt;stroke-linejoin:round;stroke-miterlimit:10;stroke-opacity:1;stroke-dasharray:none"
           id="path136"
           inkscape:connector-curvature="0" /><g
           id="g138"
           transform="scale(10,10)"><text
   transform="matrix(1,0,0,-1,347.667,5.4168)"
   id="text140"><tspan
     style="font-size:10px;font-variant:normal;font-weight:normal;writing-mode:lr-tb;fill:#000000;fill-opacity:1;fill-rule:nonzero;stroke:none;font-family:Helvetica;-inkscape-font-specification:Helvetica"
     x="0 5.5599999 8.3400002"
     y="0"
     sodipodi:role="line"
     id="tspan142">0.5</tspan></text>













</g><path
           d="m 4215,175.832 0,45"
           style="fill:none;stroke:#000000;stroke-width:5;stroke-linecap:butt;stroke-linejoin:round;stroke-miterlimit:10;stroke-opacity:1;stroke-dasharray:none"
           id="path144"
           inkscape:connector-curvature="0" /><path
           d="m 4215,3695.83 0,-45"
           style="fill:none;stroke:#000000;stroke-width:5;stroke-linecap:butt;stroke-linejoin:round;stroke-miterlimit:10;stroke-opacity:1;stroke-dasharray:none"
           id="path146"
           inkscape:connector-curvature="0" /><g
           id="g148"
           transform="scale(10,10)"><text
   transform="matrix(1,0,0,-1,414.583,5.4168)"
   id="text150"><tspan
     style="font-size:10px;font-variant:normal;font-weight:normal;writing-mode:lr-tb;fill:#000000;fill-opacity:1;fill-rule:nonzero;stroke:none;font-family:Helvetica;-inkscape-font-specification:Helvetica"
     x="0 5.5599999 8.3400002"
     y="0"
     sodipodi:role="line"
     id="tspan152">0.6</tspan></text>













</g><path
           d="m 199.168,175.832 45,0"
           style="fill:none;stroke:#000000;stroke-width:5;stroke-linecap:butt;stroke-linejoin:round;stroke-miterlimit:10;stroke-opacity:1;stroke-dasharray:none"
           id="path154"
           inkscape:connector-curvature="0" /><path
           d="m 4661.67,175.832 -45,0"
           style="fill:none;stroke:#000000;stroke-width:5;stroke-linecap:butt;stroke-linejoin:round;stroke-miterlimit:10;stroke-opacity:1;stroke-dasharray:none"
           id="path156"
           inkscape:connector-curvature="0" /><g
           id="g158"
           transform="scale(10,10)"><text
   transform="matrix(1,0,0,-1,5.6668,13.9168)"
   id="text160"><tspan
     style="font-size:10px;font-variant:normal;font-weight:normal;writing-mode:lr-tb;fill:#000000;fill-opacity:1;fill-rule:nonzero;stroke:none;font-family:Helvetica;-inkscape-font-specification:Helvetica"
     x="0 5.8400002"
     y="0"
     sodipodi:role="line"
     id="tspan162">−5</tspan></text>













</g><path
           d="m 199.168,527.5 45,0"
           style="fill:none;stroke:#000000;stroke-width:5;stroke-linecap:butt;stroke-linejoin:round;stroke-miterlimit:10;stroke-opacity:1;stroke-dasharray:none"
           id="path164"
           inkscape:connector-curvature="0" /><path
           d="m 4661.67,527.5 -45,0"
           style="fill:none;stroke:#000000;stroke-width:5;stroke-linecap:butt;stroke-linejoin:round;stroke-miterlimit:10;stroke-opacity:1;stroke-dasharray:none"
           id="path166"
           inkscape:connector-curvature="0" /><g
           id="g168"
           transform="scale(10,10)"><text
   transform="matrix(1,0,0,-1,5.6668,49.0832)"
   id="text170"><tspan
     style="font-size:10px;font-variant:normal;font-weight:normal;writing-mode:lr-tb;fill:#000000;fill-opacity:1;fill-rule:nonzero;stroke:none;font-family:Helvetica;-inkscape-font-specification:Helvetica"
     x="0 5.8400002"
     y="0"
     sodipodi:role="line"
     id="tspan172">−4</tspan></text>













</g><path
           d="m 199.168,880 45,0"
           style="fill:none;stroke:#000000;stroke-width:5;stroke-linecap:butt;stroke-linejoin:round;stroke-miterlimit:10;stroke-opacity:1;stroke-dasharray:none"
           id="path174"
           inkscape:connector-curvature="0" /><path
           d="m 4661.67,880 -45,0"
           style="fill:none;stroke:#000000;stroke-width:5;stroke-linecap:butt;stroke-linejoin:round;stroke-miterlimit:10;stroke-opacity:1;stroke-dasharray:none"
           id="path176"
           inkscape:connector-curvature="0" /><g
           id="g178"
           transform="scale(10,10)"><text
   transform="matrix(1,0,0,-1,5.6668,84.3332)"
   id="text180"><tspan
     style="font-size:10px;font-variant:normal;font-weight:normal;writing-mode:lr-tb;fill:#000000;fill-opacity:1;fill-rule:nonzero;stroke:none;font-family:Helvetica;-inkscape-font-specification:Helvetica"
     x="0 5.8400002"
     y="0"
     sodipodi:role="line"
     id="tspan182">−3</tspan></text>













</g><path
           d="m 199.168,1231.67 45,0"
           style="fill:none;stroke:#000000;stroke-width:5;stroke-linecap:butt;stroke-linejoin:round;stroke-miterlimit:10;stroke-opacity:1;stroke-dasharray:none"
           id="path184"
           inkscape:connector-curvature="0" /><path
           d="m 4661.67,1231.67 -45,0"
           style="fill:none;stroke:#000000;stroke-width:5;stroke-linecap:butt;stroke-linejoin:round;stroke-miterlimit:10;stroke-opacity:1;stroke-dasharray:none"
           id="path186"
           inkscape:connector-curvature="0" /><g
           id="g188"
           transform="scale(10,10)"><text
   transform="matrix(1,0,0,-1,5.6668,119.5)"
   id="text190"><tspan
     style="font-size:10px;font-variant:normal;font-weight:normal;writing-mode:lr-tb;fill:#000000;fill-opacity:1;fill-rule:nonzero;stroke:none;font-family:Helvetica;-inkscape-font-specification:Helvetica"
     x="0 5.8400002"
     y="0"
     sodipodi:role="line"
     id="tspan192">−2</tspan></text>













</g><path
           d="m 199.168,1584.17 45,0"
           style="fill:none;stroke:#000000;stroke-width:5;stroke-linecap:butt;stroke-linejoin:round;stroke-miterlimit:10;stroke-opacity:1;stroke-dasharray:none"
           id="path194"
           inkscape:connector-curvature="0" /><path
           d="m 4661.67,1584.17 -45,0"
           style="fill:none;stroke:#000000;stroke-width:5;stroke-linecap:butt;stroke-linejoin:round;stroke-miterlimit:10;stroke-opacity:1;stroke-dasharray:none"
           id="path196"
           inkscape:connector-curvature="0" /><g
           id="g198"
           transform="scale(10,10)"><text
   transform="matrix(1,0,0,-1,5.6668,154.75)"
   id="text200"><tspan
     style="font-size:10px;font-variant:normal;font-weight:normal;writing-mode:lr-tb;fill:#000000;fill-opacity:1;fill-rule:nonzero;stroke:none;font-family:Helvetica;-inkscape-font-specification:Helvetica"
     x="0 5.8400002"
     y="0"
     sodipodi:role="line"
     id="tspan202">−1</tspan></text>













</g><path
           d="m 199.168,1935.83 45,0"
           style="fill:none;stroke:#000000;stroke-width:5;stroke-linecap:butt;stroke-linejoin:round;stroke-miterlimit:10;stroke-opacity:1;stroke-dasharray:none"
           id="path204"
           inkscape:connector-curvature="0" /><path
           d="m 4661.67,1935.83 -45,0"
           style="fill:none;stroke:#000000;stroke-width:5;stroke-linecap:butt;stroke-linejoin:round;stroke-miterlimit:10;stroke-opacity:1;stroke-dasharray:none"
           id="path206"
           inkscape:connector-curvature="0" /><g
           id="g208"
           transform="scale(10,10)"><text
   transform="matrix(1,0,0,-1,11.5,189.917)"
   id="text210"><tspan
     style="font-size:10px;font-variant:normal;font-weight:normal;writing-mode:lr-tb;fill:#000000;fill-opacity:1;fill-rule:nonzero;stroke:none;font-family:Helvetica;-inkscape-font-specification:Helvetica"
     x="0"
     y="0"
     id="tspan212">0</tspan></text>













</g><path
           d="m 199.168,2287.5 45,0"
           style="fill:none;stroke:#000000;stroke-width:5;stroke-linecap:butt;stroke-linejoin:round;stroke-miterlimit:10;stroke-opacity:1;stroke-dasharray:none"
           id="path214"
           inkscape:connector-curvature="0" /><path
           d="m 4661.67,2287.5 -45,0"
           style="fill:none;stroke:#000000;stroke-width:5;stroke-linecap:butt;stroke-linejoin:round;stroke-miterlimit:10;stroke-opacity:1;stroke-dasharray:none"
           id="path216"
           inkscape:connector-curvature="0" /><g
           id="g218"
           transform="scale(10,10)"><text
   transform="matrix(1,0,0,-1,11.5,225.083)"
   id="text220"><tspan
     style="font-size:10px;font-variant:normal;font-weight:normal;writing-mode:lr-tb;fill:#000000;fill-opacity:1;fill-rule:nonzero;stroke:none;font-family:Helvetica;-inkscape-font-specification:Helvetica"
     x="0"
     y="0"
     id="tspan222">1</tspan></text>













</g><path
           d="m 199.168,2640 45,0"
           style="fill:none;stroke:#000000;stroke-width:5;stroke-linecap:butt;stroke-linejoin:round;stroke-miterlimit:10;stroke-opacity:1;stroke-dasharray:none"
           id="path224"
           inkscape:connector-curvature="0" /><path
           d="m 4661.67,2640 -45,0"
           style="fill:none;stroke:#000000;stroke-width:5;stroke-linecap:butt;stroke-linejoin:round;stroke-miterlimit:10;stroke-opacity:1;stroke-dasharray:none"
           id="path226"
           inkscape:connector-curvature="0" /><g
           id="g228"
           transform="scale(10,10)"><text
   transform="matrix(1,0,0,-1,11.5,260.333)"
   id="text230"><tspan
     style="font-size:10px;font-variant:normal;font-weight:normal;writing-mode:lr-tb;fill:#000000;fill-opacity:1;fill-rule:nonzero;stroke:none;font-family:Helvetica;-inkscape-font-specification:Helvetica"
     x="0"
     y="0"
     id="tspan232">2</tspan></text>













</g><path
           d="m 199.168,2991.67 45,0"
           style="fill:none;stroke:#000000;stroke-width:5;stroke-linecap:butt;stroke-linejoin:round;stroke-miterlimit:10;stroke-opacity:1;stroke-dasharray:none"
           id="path234"
           inkscape:connector-curvature="0" /><path
           d="m 4661.67,2991.67 -45,0"
           style="fill:none;stroke:#000000;stroke-width:5;stroke-linecap:butt;stroke-linejoin:round;stroke-miterlimit:10;stroke-opacity:1;stroke-dasharray:none"
           id="path236"
           inkscape:connector-curvature="0" /><g
           id="g238"
           transform="scale(10,10)"><text
   transform="matrix(1,0,0,-1,11.5,295.5)"
   id="text240"><tspan
     style="font-size:10px;font-variant:normal;font-weight:normal;writing-mode:lr-tb;fill:#000000;fill-opacity:1;fill-rule:nonzero;stroke:none;font-family:Helvetica;-inkscape-font-specification:Helvetica"
     x="0"
     y="0"
     id="tspan242">3</tspan></text>













</g><path
           d="m 199.168,3344.17 45,0"
           style="fill:none;stroke:#000000;stroke-width:5;stroke-linecap:butt;stroke-linejoin:round;stroke-miterlimit:10;stroke-opacity:1;stroke-dasharray:none"
           id="path244"
           inkscape:connector-curvature="0" /><path
           d="m 4661.67,3344.17 -45,0"
           style="fill:none;stroke:#000000;stroke-width:5;stroke-linecap:butt;stroke-linejoin:round;stroke-miterlimit:10;stroke-opacity:1;stroke-dasharray:none"
           id="path246"
           inkscape:connector-curvature="0" /><g
           id="g248"
           transform="scale(10,10)"><text
   transform="matrix(1,0,0,-1,11.5,330.75)"
   id="text250"><tspan
     style="font-size:10px;font-variant:normal;font-weight:normal;writing-mode:lr-tb;fill:#000000;fill-opacity:1;fill-rule:nonzero;stroke:none;font-family:Helvetica;-inkscape-font-specification:Helvetica"
     x="0"
     y="0"
     id="tspan252">4</tspan></text>













</g><path
           d="m 199.168,3695.83 45,0"
           style="fill:none;stroke:#000000;stroke-width:5;stroke-linecap:butt;stroke-linejoin:round;stroke-miterlimit:10;stroke-opacity:1;stroke-dasharray:none"
           id="path254"
           inkscape:connector-curvature="0" /><path
           d="m 4661.67,3695.83 -45,0"
           style="fill:none;stroke:#000000;stroke-width:5;stroke-linecap:butt;stroke-linejoin:round;stroke-miterlimit:10;stroke-opacity:1;stroke-dasharray:none"
           id="path256"
           inkscape:connector-curvature="0" /><g
           id="g258"
           transform="scale(10,10)"><text
   transform="matrix(1,0,0,-1,11.5,365.917)"
   id="text260"><tspan
     style="font-size:10px;font-variant:normal;font-weight:normal;writing-mode:lr-tb;fill:#000000;fill-opacity:1;fill-rule:nonzero;stroke:none;font-family:Helvetica;-inkscape-font-specification:Helvetica"
     x="0"
     y="0"
     id="tspan262">5</tspan></text>













</g><path
           d="m 199.168,3695.83 4462.502,0"
           style="fill:none;stroke:#000000;stroke-width:5;stroke-linecap:butt;stroke-linejoin:round;stroke-miterlimit:10;stroke-opacity:1;stroke-dasharray:none"
           id="path264"
           inkscape:connector-curvature="0" /><path
           d="m 199.168,175.832 4462.502,0"
           style="fill:none;stroke:#000000;stroke-width:5;stroke-linecap:butt;stroke-linejoin:round;stroke-miterlimit:10;stroke-opacity:1;stroke-dasharray:none"
           id="path266"
           inkscape:connector-curvature="0" /><path
           d="m 4661.67,175.832 0,3519.998"
           style="fill:none;stroke:#000000;stroke-width:5;stroke-linecap:butt;stroke-linejoin:round;stroke-miterlimit:10;stroke-opacity:1;stroke-dasharray:none"
           id="path268"
           inkscape:connector-curvature="0" /><path
           d="m 199.168,175.832 0,3519.998"
           style="fill:none;stroke:#000000;stroke-width:5;stroke-linecap:butt;stroke-linejoin:round;stroke-miterlimit:10;stroke-opacity:1;stroke-dasharray:none"
           id="path270"
           inkscape:connector-curvature="0" /></g></g><path
       d="m 104.4314,367.6458 -0.5,-343.833003"
       style="fill:none;stroke:#000000;stroke-width:0.5;stroke-linecap:butt;stroke-linejoin:round;stroke-miterlimit:10;stroke-opacity:1;stroke-dasharray:0.5, 4;stroke-dashoffset:0"
       id="path306"
       inkscape:connector-curvature="0" /><g
       id="g5353"
       transform="matrix(1.5,0,0,-1.5,-297.27911,537.02291)"
       ns0:preamble=""
       ns0:text="$x_1(t)$"><defs
   id="defs5355">
<g
   id="g5357">
<symbol
   id="textext-092dbb95-0"
   overflow="visible">
<path
   id="path5360"
   d="M 3.328125 -3.015625 C 3.390625 -3.265625 3.625 -4.1875 4.3125 -4.1875 C 4.359375 -4.1875 4.609375 -4.1875 4.8125 -4.0625 C 4.53125 -4 4.34375 -3.765625 4.34375 -3.515625 C 4.34375 -3.359375 4.453125 -3.171875 4.71875 -3.171875 C 4.9375 -3.171875 5.25 -3.34375 5.25 -3.75 C 5.25 -4.265625 4.671875 -4.40625 4.328125 -4.40625 C 3.75 -4.40625 3.40625 -3.875 3.28125 -3.65625 C 3.03125 -4.3125 2.5 -4.40625 2.203125 -4.40625 C 1.171875 -4.40625 0.59375 -3.125 0.59375 -2.875 C 0.59375 -2.765625 0.703125 -2.765625 0.71875 -2.765625 C 0.796875 -2.765625 0.828125 -2.796875 0.84375 -2.875 C 1.1875 -3.9375 1.84375 -4.1875 2.1875 -4.1875 C 2.375 -4.1875 2.71875 -4.09375 2.71875 -3.515625 C 2.71875 -3.203125 2.546875 -2.546875 2.1875 -1.140625 C 2.03125 -0.53125 1.671875 -0.109375 1.234375 -0.109375 C 1.171875 -0.109375 0.953125 -0.109375 0.734375 -0.234375 C 0.984375 -0.296875 1.203125 -0.5 1.203125 -0.78125 C 1.203125 -1.046875 0.984375 -1.125 0.84375 -1.125 C 0.53125 -1.125 0.296875 -0.875 0.296875 -0.546875 C 0.296875 -0.09375 0.78125 0.109375 1.21875 0.109375 C 1.890625 0.109375 2.25 -0.59375 2.265625 -0.640625 C 2.390625 -0.28125 2.75 0.109375 3.34375 0.109375 C 4.375 0.109375 4.9375 -1.171875 4.9375 -1.421875 C 4.9375 -1.53125 4.859375 -1.53125 4.828125 -1.53125 C 4.734375 -1.53125 4.71875 -1.484375 4.6875 -1.421875 C 4.359375 -0.34375 3.6875 -0.109375 3.375 -0.109375 C 2.984375 -0.109375 2.828125 -0.421875 2.828125 -0.765625 C 2.828125 -0.984375 2.875 -1.203125 2.984375 -1.640625 Z M 3.328125 -3.015625 "
   style="stroke:none;" />
</symbol>
<symbol
   id="textext-092dbb95-1"
   overflow="visible">
<path
   id="path5363"
   d="M 2.046875 -3.984375 L 2.984375 -3.984375 C 3.1875 -3.984375 3.296875 -3.984375 3.296875 -4.1875 C 3.296875 -4.296875 3.1875 -4.296875 3.015625 -4.296875 L 2.140625 -4.296875 C 2.5 -5.71875 2.546875 -5.90625 2.546875 -5.96875 C 2.546875 -6.140625 2.421875 -6.234375 2.25 -6.234375 C 2.21875 -6.234375 1.9375 -6.234375 1.859375 -5.875 L 1.46875 -4.296875 L 0.53125 -4.296875 C 0.328125 -4.296875 0.234375 -4.296875 0.234375 -4.109375 C 0.234375 -3.984375 0.3125 -3.984375 0.515625 -3.984375 L 1.390625 -3.984375 C 0.671875 -1.15625 0.625 -0.984375 0.625 -0.8125 C 0.625 -0.265625 1 0.109375 1.546875 0.109375 C 2.5625 0.109375 3.125 -1.34375 3.125 -1.421875 C 3.125 -1.53125 3.046875 -1.53125 3.015625 -1.53125 C 2.921875 -1.53125 2.90625 -1.5 2.859375 -1.390625 C 2.4375 -0.34375 1.90625 -0.109375 1.5625 -0.109375 C 1.359375 -0.109375 1.25 -0.234375 1.25 -0.5625 C 1.25 -0.8125 1.28125 -0.875 1.3125 -1.046875 Z M 2.046875 -3.984375 "
   style="stroke:none;" />
</symbol>
<symbol
   id="textext-092dbb95-2"
   overflow="visible">
<path
   id="path5366"
   d="M 2.328125 -4.4375 C 2.328125 -4.625 2.328125 -4.625 2.125 -4.625 C 1.671875 -4.1875 1.046875 -4.1875 0.765625 -4.1875 L 0.765625 -3.9375 C 0.921875 -3.9375 1.390625 -3.9375 1.765625 -4.125 L 1.765625 -0.578125 C 1.765625 -0.34375 1.765625 -0.25 1.078125 -0.25 L 0.8125 -0.25 L 0.8125 0 C 0.9375 0 1.796875 -0.03125 2.046875 -0.03125 C 2.265625 -0.03125 3.140625 0 3.296875 0 L 3.296875 -0.25 L 3.03125 -0.25 C 2.328125 -0.25 2.328125 -0.34375 2.328125 -0.578125 Z M 2.328125 -4.4375 "
   style="stroke:none;" />
</symbol>
<symbol
   id="textext-092dbb95-3"
   overflow="visible">
<path
   id="path5369"
   d="M 3.296875 2.390625 C 3.296875 2.359375 3.296875 2.34375 3.125 2.171875 C 1.890625 0.921875 1.5625 -0.96875 1.5625 -2.5 C 1.5625 -4.234375 1.9375 -5.96875 3.171875 -7.203125 C 3.296875 -7.328125 3.296875 -7.34375 3.296875 -7.375 C 3.296875 -7.453125 3.265625 -7.484375 3.203125 -7.484375 C 3.09375 -7.484375 2.203125 -6.796875 1.609375 -5.53125 C 1.109375 -4.4375 0.984375 -3.328125 0.984375 -2.5 C 0.984375 -1.71875 1.09375 -0.515625 1.640625 0.625 C 2.25 1.84375 3.09375 2.5 3.203125 2.5 C 3.265625 2.5 3.296875 2.46875 3.296875 2.390625 Z M 3.296875 2.390625 "
   style="stroke:none;" />
</symbol>
<symbol
   id="textext-092dbb95-4"
   overflow="visible">
<path
   id="path5372"
   d="M 2.875 -2.5 C 2.875 -3.265625 2.765625 -4.46875 2.21875 -5.609375 C 1.625 -6.828125 0.765625 -7.484375 0.671875 -7.484375 C 0.609375 -7.484375 0.5625 -7.4375 0.5625 -7.375 C 0.5625 -7.34375 0.5625 -7.328125 0.75 -7.140625 C 1.734375 -6.15625 2.296875 -4.578125 2.296875 -2.5 C 2.296875 -0.78125 1.9375 0.96875 0.703125 2.21875 C 0.5625 2.34375 0.5625 2.359375 0.5625 2.390625 C 0.5625 2.453125 0.609375 2.5 0.671875 2.5 C 0.765625 2.5 1.671875 1.8125 2.25 0.546875 C 2.765625 -0.546875 2.875 -1.65625 2.875 -2.5 Z M 2.875 -2.5 "
   style="stroke:none;" />
</symbol>
</g>
</defs>
<g
   id="textext-092dbb95-5">
<g
   id="g5375"
   style="fill:rgb(0%,0%,0%);fill-opacity:1;">
  <use
   id="use5377"
   y="134.765"
   x="223.432"
   xlink:href="#textext-092dbb95-0" />
</g>
<g
   id="g5379"
   style="fill:rgb(0%,0%,0%);fill-opacity:1;">
  <use
   id="use5381"
   y="136.259"
   x="229.126"
   xlink:href="#textext-092dbb95-2" />
</g>
<g
   id="g5383"
   style="fill:rgb(0%,0%,0%);fill-opacity:1;">
  <use
   id="use5385"
   y="134.765"
   x="233.595"
   xlink:href="#textext-092dbb95-3" />
</g>
<g
   id="g5387"
   style="fill:rgb(0%,0%,0%);fill-opacity:1;">
  <use
   id="use5389"
   y="134.765"
   x="237.47"
   xlink:href="#textext-092dbb95-1" />
</g>
<g
   id="g5391"
   style="fill:rgb(0%,0%,0%);fill-opacity:1;">
  <use
   id="use5393"
   y="134.765"
   x="241.067"
   xlink:href="#textext-092dbb95-4" />
</g>
</g>
</g><g
       ns0:text="$\\dot x_2=-4$"
       ns0:preamble=""
       transform="matrix(1.5,0,0,-1.5,-302.58406,422.5876)"
       id="g5865"><defs
   id="defs5867">
<g
   id="g5869">
<symbol
   overflow="visible"
   id="textext-50c9c9a5-0">
<path
   style="stroke:none;"
   d="M 1.90625 -6.140625 C 1.90625 -6.40625 1.6875 -6.671875 1.390625 -6.671875 C 1.046875 -6.671875 0.84375 -6.390625 0.84375 -6.140625 C 0.84375 -5.875 1.078125 -5.609375 1.375 -5.609375 C 1.71875 -5.609375 1.90625 -5.890625 1.90625 -6.140625 Z M 1.90625 -6.140625 "
   id="path5872" />
</symbol>
<symbol
   overflow="visible"
   id="textext-50c9c9a5-1">
<path
   style="stroke:none;"
   d="M 6.84375 -3.265625 C 7 -3.265625 7.1875 -3.265625 7.1875 -3.453125 C 7.1875 -3.65625 7 -3.65625 6.859375 -3.65625 L 0.890625 -3.65625 C 0.75 -3.65625 0.5625 -3.65625 0.5625 -3.453125 C 0.5625 -3.265625 0.75 -3.265625 0.890625 -3.265625 Z M 6.859375 -1.328125 C 7 -1.328125 7.1875 -1.328125 7.1875 -1.53125 C 7.1875 -1.71875 7 -1.71875 6.84375 -1.71875 L 0.890625 -1.71875 C 0.75 -1.71875 0.5625 -1.71875 0.5625 -1.53125 C 0.5625 -1.328125 0.75 -1.328125 0.890625 -1.328125 Z M 6.859375 -1.328125 "
   id="path5875" />
</symbol>
<symbol
   overflow="visible"
   id="textext-50c9c9a5-2">
<path
   style="stroke:none;"
   d="M 2.9375 -1.640625 L 2.9375 -0.78125 C 2.9375 -0.421875 2.90625 -0.3125 2.171875 -0.3125 L 1.96875 -0.3125 L 1.96875 0 C 2.375 -0.03125 2.890625 -0.03125 3.3125 -0.03125 C 3.734375 -0.03125 4.25 -0.03125 4.671875 0 L 4.671875 -0.3125 L 4.453125 -0.3125 C 3.71875 -0.3125 3.703125 -0.421875 3.703125 -0.78125 L 3.703125 -1.640625 L 4.6875 -1.640625 L 4.6875 -1.953125 L 3.703125 -1.953125 L 3.703125 -6.484375 C 3.703125 -6.6875 3.703125 -6.75 3.53125 -6.75 C 3.453125 -6.75 3.421875 -6.75 3.34375 -6.625 L 0.28125 -1.953125 L 0.28125 -1.640625 Z M 2.984375 -1.953125 L 0.5625 -1.953125 L 2.984375 -5.671875 Z M 2.984375 -1.953125 "
   id="path5878" />
</symbol>
<symbol
   overflow="visible"
   id="textext-50c9c9a5-3">
<path
   style="stroke:none;"
   d="M 3.328125 -3.015625 C 3.390625 -3.265625 3.625 -4.1875 4.3125 -4.1875 C 4.359375 -4.1875 4.609375 -4.1875 4.8125 -4.0625 C 4.53125 -4 4.34375 -3.765625 4.34375 -3.515625 C 4.34375 -3.359375 4.453125 -3.171875 4.71875 -3.171875 C 4.9375 -3.171875 5.25 -3.34375 5.25 -3.75 C 5.25 -4.265625 4.671875 -4.40625 4.328125 -4.40625 C 3.75 -4.40625 3.40625 -3.875 3.28125 -3.65625 C 3.03125 -4.3125 2.5 -4.40625 2.203125 -4.40625 C 1.171875 -4.40625 0.59375 -3.125 0.59375 -2.875 C 0.59375 -2.765625 0.703125 -2.765625 0.71875 -2.765625 C 0.796875 -2.765625 0.828125 -2.796875 0.84375 -2.875 C 1.1875 -3.9375 1.84375 -4.1875 2.1875 -4.1875 C 2.375 -4.1875 2.71875 -4.09375 2.71875 -3.515625 C 2.71875 -3.203125 2.546875 -2.546875 2.1875 -1.140625 C 2.03125 -0.53125 1.671875 -0.109375 1.234375 -0.109375 C 1.171875 -0.109375 0.953125 -0.109375 0.734375 -0.234375 C 0.984375 -0.296875 1.203125 -0.5 1.203125 -0.78125 C 1.203125 -1.046875 0.984375 -1.125 0.84375 -1.125 C 0.53125 -1.125 0.296875 -0.875 0.296875 -0.546875 C 0.296875 -0.09375 0.78125 0.109375 1.21875 0.109375 C 1.890625 0.109375 2.25 -0.59375 2.265625 -0.640625 C 2.390625 -0.28125 2.75 0.109375 3.34375 0.109375 C 4.375 0.109375 4.9375 -1.171875 4.9375 -1.421875 C 4.9375 -1.53125 4.859375 -1.53125 4.828125 -1.53125 C 4.734375 -1.53125 4.71875 -1.484375 4.6875 -1.421875 C 4.359375 -0.34375 3.6875 -0.109375 3.375 -0.109375 C 2.984375 -0.109375 2.828125 -0.421875 2.828125 -0.765625 C 2.828125 -0.984375 2.875 -1.203125 2.984375 -1.640625 Z M 3.328125 -3.015625 "
   id="path5881" />
</symbol>
<symbol
   overflow="visible"
   id="textext-50c9c9a5-4">
<path
   style="stroke:none;"
   d="M 3.515625 -1.265625 L 3.28125 -1.265625 C 3.265625 -1.109375 3.1875 -0.703125 3.09375 -0.640625 C 3.046875 -0.59375 2.515625 -0.59375 2.40625 -0.59375 L 1.125 -0.59375 C 1.859375 -1.234375 2.109375 -1.4375 2.515625 -1.765625 C 3.03125 -2.171875 3.515625 -2.609375 3.515625 -3.265625 C 3.515625 -4.109375 2.78125 -4.625 1.890625 -4.625 C 1.03125 -4.625 0.4375 -4.015625 0.4375 -3.375 C 0.4375 -3.03125 0.734375 -2.984375 0.8125 -2.984375 C 0.96875 -2.984375 1.171875 -3.109375 1.171875 -3.359375 C 1.171875 -3.484375 1.125 -3.734375 0.765625 -3.734375 C 0.984375 -4.21875 1.453125 -4.375 1.78125 -4.375 C 2.484375 -4.375 2.84375 -3.828125 2.84375 -3.265625 C 2.84375 -2.65625 2.40625 -2.1875 2.1875 -1.9375 L 0.515625 -0.265625 C 0.4375 -0.203125 0.4375 -0.1875 0.4375 0 L 3.3125 0 Z M 3.515625 -1.265625 "
   id="path5884" />
</symbol>
<symbol
   overflow="visible"
   id="textext-50c9c9a5-5">
<path
   style="stroke:none;"
   d="M 6.5625 -2.296875 C 6.734375 -2.296875 6.921875 -2.296875 6.921875 -2.5 C 6.921875 -2.6875 6.734375 -2.6875 6.5625 -2.6875 L 1.171875 -2.6875 C 1 -2.6875 0.828125 -2.6875 0.828125 -2.5 C 0.828125 -2.296875 1 -2.296875 1.171875 -2.296875 Z M 6.5625 -2.296875 "
   id="path5887" />
</symbol>
</g>
</defs>
<g
   id="textext-50c9c9a5-6">
<g
   style="fill:rgb(0%,0%,0%);fill-opacity:1;"
   id="g5890">
  <use
   xlink:href="#textext-50c9c9a5-0"
   x="225.172"
   y="134.765"
   id="use5892" />
</g>
<g
   style="fill:rgb(0%,0%,0%);fill-opacity:1;"
   id="g5894">
  <use
   xlink:href="#textext-50c9c9a5-3"
   x="223.432"
   y="134.765"
   id="use5896" />
</g>
<g
   style="fill:rgb(0%,0%,0%);fill-opacity:1;"
   id="g5898">
  <use
   xlink:href="#textext-50c9c9a5-4"
   x="229.126"
   y="136.259"
   id="use5900" />
</g>
<g
   style="fill:rgb(0%,0%,0%);fill-opacity:1;"
   id="g5902">
  <use
   xlink:href="#textext-50c9c9a5-1"
   x="236.363"
   y="134.765"
   id="use5904" />
</g>
<g
   style="fill:rgb(0%,0%,0%);fill-opacity:1;"
   id="g5906">
  <use
   xlink:href="#textext-50c9c9a5-5"
   x="246.879"
   y="134.765"
   id="use5908" />
</g>
<g
   style="fill:rgb(0%,0%,0%);fill-opacity:1;"
   id="g5910">
  <use
   xlink:href="#textext-50c9c9a5-2"
   x="254.628"
   y="134.765"
   id="use5912" />
</g>
</g>
</g><g
       id="g6392"
       transform="matrix(1.5,0,0,-1.5,-300.31051,386.21082)"
       ns0:preamble=""
       ns0:text="$x_2(t)$"><defs
   id="defs6394">
<g
   id="g6396">
<symbol
   id="textext-bbe29108-0"
   overflow="visible">
<path
   id="path6399"
   d="M 3.328125 -3.015625 C 3.390625 -3.265625 3.625 -4.1875 4.3125 -4.1875 C 4.359375 -4.1875 4.609375 -4.1875 4.8125 -4.0625 C 4.53125 -4 4.34375 -3.765625 4.34375 -3.515625 C 4.34375 -3.359375 4.453125 -3.171875 4.71875 -3.171875 C 4.9375 -3.171875 5.25 -3.34375 5.25 -3.75 C 5.25 -4.265625 4.671875 -4.40625 4.328125 -4.40625 C 3.75 -4.40625 3.40625 -3.875 3.28125 -3.65625 C 3.03125 -4.3125 2.5 -4.40625 2.203125 -4.40625 C 1.171875 -4.40625 0.59375 -3.125 0.59375 -2.875 C 0.59375 -2.765625 0.703125 -2.765625 0.71875 -2.765625 C 0.796875 -2.765625 0.828125 -2.796875 0.84375 -2.875 C 1.1875 -3.9375 1.84375 -4.1875 2.1875 -4.1875 C 2.375 -4.1875 2.71875 -4.09375 2.71875 -3.515625 C 2.71875 -3.203125 2.546875 -2.546875 2.1875 -1.140625 C 2.03125 -0.53125 1.671875 -0.109375 1.234375 -0.109375 C 1.171875 -0.109375 0.953125 -0.109375 0.734375 -0.234375 C 0.984375 -0.296875 1.203125 -0.5 1.203125 -0.78125 C 1.203125 -1.046875 0.984375 -1.125 0.84375 -1.125 C 0.53125 -1.125 0.296875 -0.875 0.296875 -0.546875 C 0.296875 -0.09375 0.78125 0.109375 1.21875 0.109375 C 1.890625 0.109375 2.25 -0.59375 2.265625 -0.640625 C 2.390625 -0.28125 2.75 0.109375 3.34375 0.109375 C 4.375 0.109375 4.9375 -1.171875 4.9375 -1.421875 C 4.9375 -1.53125 4.859375 -1.53125 4.828125 -1.53125 C 4.734375 -1.53125 4.71875 -1.484375 4.6875 -1.421875 C 4.359375 -0.34375 3.6875 -0.109375 3.375 -0.109375 C 2.984375 -0.109375 2.828125 -0.421875 2.828125 -0.765625 C 2.828125 -0.984375 2.875 -1.203125 2.984375 -1.640625 Z M 3.328125 -3.015625 "
   style="stroke:none;" />
</symbol>
<symbol
   id="textext-bbe29108-1"
   overflow="visible">
<path
   id="path6402"
   d="M 2.046875 -3.984375 L 2.984375 -3.984375 C 3.1875 -3.984375 3.296875 -3.984375 3.296875 -4.1875 C 3.296875 -4.296875 3.1875 -4.296875 3.015625 -4.296875 L 2.140625 -4.296875 C 2.5 -5.71875 2.546875 -5.90625 2.546875 -5.96875 C 2.546875 -6.140625 2.421875 -6.234375 2.25 -6.234375 C 2.21875 -6.234375 1.9375 -6.234375 1.859375 -5.875 L 1.46875 -4.296875 L 0.53125 -4.296875 C 0.328125 -4.296875 0.234375 -4.296875 0.234375 -4.109375 C 0.234375 -3.984375 0.3125 -3.984375 0.515625 -3.984375 L 1.390625 -3.984375 C 0.671875 -1.15625 0.625 -0.984375 0.625 -0.8125 C 0.625 -0.265625 1 0.109375 1.546875 0.109375 C 2.5625 0.109375 3.125 -1.34375 3.125 -1.421875 C 3.125 -1.53125 3.046875 -1.53125 3.015625 -1.53125 C 2.921875 -1.53125 2.90625 -1.5 2.859375 -1.390625 C 2.4375 -0.34375 1.90625 -0.109375 1.5625 -0.109375 C 1.359375 -0.109375 1.25 -0.234375 1.25 -0.5625 C 1.25 -0.8125 1.28125 -0.875 1.3125 -1.046875 Z M 2.046875 -3.984375 "
   style="stroke:none;" />
</symbol>
<symbol
   id="textext-bbe29108-2"
   overflow="visible">
<path
   id="path6405"
   d="M 3.515625 -1.265625 L 3.28125 -1.265625 C 3.265625 -1.109375 3.1875 -0.703125 3.09375 -0.640625 C 3.046875 -0.59375 2.515625 -0.59375 2.40625 -0.59375 L 1.125 -0.59375 C 1.859375 -1.234375 2.109375 -1.4375 2.515625 -1.765625 C 3.03125 -2.171875 3.515625 -2.609375 3.515625 -3.265625 C 3.515625 -4.109375 2.78125 -4.625 1.890625 -4.625 C 1.03125 -4.625 0.4375 -4.015625 0.4375 -3.375 C 0.4375 -3.03125 0.734375 -2.984375 0.8125 -2.984375 C 0.96875 -2.984375 1.171875 -3.109375 1.171875 -3.359375 C 1.171875 -3.484375 1.125 -3.734375 0.765625 -3.734375 C 0.984375 -4.21875 1.453125 -4.375 1.78125 -4.375 C 2.484375 -4.375 2.84375 -3.828125 2.84375 -3.265625 C 2.84375 -2.65625 2.40625 -2.1875 2.1875 -1.9375 L 0.515625 -0.265625 C 0.4375 -0.203125 0.4375 -0.1875 0.4375 0 L 3.3125 0 Z M 3.515625 -1.265625 "
   style="stroke:none;" />
</symbol>
<symbol
   id="textext-bbe29108-3"
   overflow="visible">
<path
   id="path6408"
   d="M 3.296875 2.390625 C 3.296875 2.359375 3.296875 2.34375 3.125 2.171875 C 1.890625 0.921875 1.5625 -0.96875 1.5625 -2.5 C 1.5625 -4.234375 1.9375 -5.96875 3.171875 -7.203125 C 3.296875 -7.328125 3.296875 -7.34375 3.296875 -7.375 C 3.296875 -7.453125 3.265625 -7.484375 3.203125 -7.484375 C 3.09375 -7.484375 2.203125 -6.796875 1.609375 -5.53125 C 1.109375 -4.4375 0.984375 -3.328125 0.984375 -2.5 C 0.984375 -1.71875 1.09375 -0.515625 1.640625 0.625 C 2.25 1.84375 3.09375 2.5 3.203125 2.5 C 3.265625 2.5 3.296875 2.46875 3.296875 2.390625 Z M 3.296875 2.390625 "
   style="stroke:none;" />
</symbol>
<symbol
   id="textext-bbe29108-4"
   overflow="visible">
<path
   id="path6411"
   d="M 2.875 -2.5 C 2.875 -3.265625 2.765625 -4.46875 2.21875 -5.609375 C 1.625 -6.828125 0.765625 -7.484375 0.671875 -7.484375 C 0.609375 -7.484375 0.5625 -7.4375 0.5625 -7.375 C 0.5625 -7.34375 0.5625 -7.328125 0.75 -7.140625 C 1.734375 -6.15625 2.296875 -4.578125 2.296875 -2.5 C 2.296875 -0.78125 1.9375 0.96875 0.703125 2.21875 C 0.5625 2.34375 0.5625 2.359375 0.5625 2.390625 C 0.5625 2.453125 0.609375 2.5 0.671875 2.5 C 0.765625 2.5 1.671875 1.8125 2.25 0.546875 C 2.765625 -0.546875 2.875 -1.65625 2.875 -2.5 Z M 2.875 -2.5 "
   style="stroke:none;" />
</symbol>
</g>
</defs>
<g
   id="textext-bbe29108-5">
<g
   id="g6414"
   style="fill:rgb(0%,0%,0%);fill-opacity:1;">
  <use
   id="use6416"
   y="134.765"
   x="223.432"
   xlink:href="#textext-bbe29108-0" />
</g>
<g
   id="g6418"
   style="fill:rgb(0%,0%,0%);fill-opacity:1;">
  <use
   id="use6420"
   y="136.259"
   x="229.126"
   xlink:href="#textext-bbe29108-2" />
</g>
<g
   id="g6422"
   style="fill:rgb(0%,0%,0%);fill-opacity:1;">
  <use
   id="use6424"
   y="134.765"
   x="233.595"
   xlink:href="#textext-bbe29108-3" />
</g>
<g
   id="g6426"
   style="fill:rgb(0%,0%,0%);fill-opacity:1;">
  <use
   id="use6428"
   y="134.765"
   x="237.47"
   xlink:href="#textext-bbe29108-1" />
</g>
<g
   id="g6430"
   style="fill:rgb(0%,0%,0%);fill-opacity:1;">
  <use
   id="use6432"
   y="134.765"
   x="241.067"
   xlink:href="#textext-bbe29108-4" />
</g>
</g>
</g><path
       d="m 271.76509,362.89462 -0.5,-343.832997"
       style="fill:none;stroke:#000000;stroke-width:0.5;stroke-linecap:butt;stroke-linejoin:round;stroke-miterlimit:10;stroke-opacity:1;stroke-dasharray:0.5, 4;stroke-dashoffset:0"
       id="path310"
       inkscape:connector-curvature="0" /><g
       transform="matrix(0.1,0,0,0.1,-0.18602335,0.68399891)"
       id="g272"><g
         id="g274"
         clip-path="url(#clipPath276-3)"><path
           d="m 199.168,3520 836.662,0"
           style="fill:none;stroke:#000000;stroke-width:5;stroke-linecap:butt;stroke-linejoin:round;stroke-miterlimit:10;stroke-opacity:1;stroke-dasharray:none"
           id="path280"
           inkscape:connector-curvature="0" /><path
           d="M 199.168,2111.67 1035.83,1935.83"
           style="fill:none;stroke:#000000;stroke-width:5;stroke-linecap:butt;stroke-linejoin:round;stroke-miterlimit:10;stroke-opacity:1;stroke-dasharray:none"
           id="path282"
           inkscape:connector-curvature="0" /><path
           d="m 1035.83,3520 1673.34,-88.33"
           style="fill:none;stroke:#000000;stroke-width:5;stroke-linecap:butt;stroke-linejoin:round;stroke-miterlimit:10;stroke-opacity:1;stroke-dasharray:none"
           id="path284-4"
           inkscape:connector-curvature="0" /><path
           d="M 1035.83,1935.83 2709.17,1584.17"
           style="fill:none;stroke:#000000;stroke-width:5;stroke-linecap:butt;stroke-linejoin:round;stroke-miterlimit:10;stroke-opacity:1;stroke-dasharray:none"
           id="path286-3"
           inkscape:connector-curvature="0" /><path
           d="m 2709.17,3431.67 836.66,-87.5"
           style="fill:none;stroke:#000000;stroke-width:5;stroke-linecap:butt;stroke-linejoin:round;stroke-miterlimit:10;stroke-opacity:1;stroke-dasharray:none"
           id="path288"
           inkscape:connector-curvature="0" /><path
           d="M 2709.17,1584.17 3545.83,1407.5"
           style="fill:none;stroke:#000000;stroke-width:5;stroke-linecap:butt;stroke-linejoin:round;stroke-miterlimit:10;stroke-opacity:1;stroke-dasharray:none"
           id="path290-0"
           inkscape:connector-curvature="0" /></g></g><path
       d="m 354.74111,364.865 -0.583,-343.8338"
       style="fill:none;stroke:#000000;stroke-width:0.5;stroke-linecap:butt;stroke-linejoin:round;stroke-miterlimit:10;stroke-opacity:1;stroke-dasharray:0.5, 4;stroke-dashoffset:0"
       id="path322"
       inkscape:connector-curvature="0" /><path
       d="m 383.99111,345.365 -113.666,0"
       style="fill:none;stroke:#000000;stroke-width:0.5;stroke-linecap:butt;stroke-linejoin:round;stroke-miterlimit:10;stroke-opacity:1;stroke-dasharray:0.5, 4;stroke-dashoffset:0"
       id="path324"
       inkscape:connector-curvature="0" /><g
       id="g9144"
       transform="matrix(1.5,0,0,-1.5,-50.775933,554.16092)"
       ns0:preamble=""
       ns0:text="$\\dot x_1=-2$"><defs
   id="defs9146">
<g
   id="g9148">
<symbol
   id="textext-d5db42a0-0"
   overflow="visible">
<path
   id="path9151"
   d="M 1.90625 -6.140625 C 1.90625 -6.40625 1.6875 -6.671875 1.390625 -6.671875 C 1.046875 -6.671875 0.84375 -6.390625 0.84375 -6.140625 C 0.84375 -5.875 1.078125 -5.609375 1.375 -5.609375 C 1.71875 -5.609375 1.90625 -5.890625 1.90625 -6.140625 Z M 1.90625 -6.140625 "
   style="stroke:none;" />
</symbol>
<symbol
   id="textext-d5db42a0-1"
   overflow="visible">
<path
   id="path9154"
   d="M 6.84375 -3.265625 C 7 -3.265625 7.1875 -3.265625 7.1875 -3.453125 C 7.1875 -3.65625 7 -3.65625 6.859375 -3.65625 L 0.890625 -3.65625 C 0.75 -3.65625 0.5625 -3.65625 0.5625 -3.453125 C 0.5625 -3.265625 0.75 -3.265625 0.890625 -3.265625 Z M 6.859375 -1.328125 C 7 -1.328125 7.1875 -1.328125 7.1875 -1.53125 C 7.1875 -1.71875 7 -1.71875 6.84375 -1.71875 L 0.890625 -1.71875 C 0.75 -1.71875 0.5625 -1.71875 0.5625 -1.53125 C 0.5625 -1.328125 0.75 -1.328125 0.890625 -1.328125 Z M 6.859375 -1.328125 "
   style="stroke:none;" />
</symbol>
<symbol
   id="textext-d5db42a0-2"
   overflow="visible">
<path
   id="path9157"
   d="M 1.265625 -0.765625 L 2.328125 -1.796875 C 3.875 -3.171875 4.46875 -3.703125 4.46875 -4.703125 C 4.46875 -5.84375 3.578125 -6.640625 2.359375 -6.640625 C 1.234375 -6.640625 0.5 -5.71875 0.5 -4.828125 C 0.5 -4.28125 1 -4.28125 1.03125 -4.28125 C 1.203125 -4.28125 1.546875 -4.390625 1.546875 -4.8125 C 1.546875 -5.0625 1.359375 -5.328125 1.015625 -5.328125 C 0.9375 -5.328125 0.921875 -5.328125 0.890625 -5.3125 C 1.109375 -5.96875 1.65625 -6.328125 2.234375 -6.328125 C 3.140625 -6.328125 3.5625 -5.515625 3.5625 -4.703125 C 3.5625 -3.90625 3.078125 -3.125 2.515625 -2.5 L 0.609375 -0.375 C 0.5 -0.265625 0.5 -0.234375 0.5 0 L 4.203125 0 L 4.46875 -1.734375 L 4.234375 -1.734375 C 4.171875 -1.4375 4.109375 -1 4 -0.84375 C 3.9375 -0.765625 3.28125 -0.765625 3.0625 -0.765625 Z M 1.265625 -0.765625 "
   style="stroke:none;" />
</symbol>
<symbol
   id="textext-d5db42a0-3"
   overflow="visible">
<path
   id="path9160"
   d="M 3.328125 -3.015625 C 3.390625 -3.265625 3.625 -4.1875 4.3125 -4.1875 C 4.359375 -4.1875 4.609375 -4.1875 4.8125 -4.0625 C 4.53125 -4 4.34375 -3.765625 4.34375 -3.515625 C 4.34375 -3.359375 4.453125 -3.171875 4.71875 -3.171875 C 4.9375 -3.171875 5.25 -3.34375 5.25 -3.75 C 5.25 -4.265625 4.671875 -4.40625 4.328125 -4.40625 C 3.75 -4.40625 3.40625 -3.875 3.28125 -3.65625 C 3.03125 -4.3125 2.5 -4.40625 2.203125 -4.40625 C 1.171875 -4.40625 0.59375 -3.125 0.59375 -2.875 C 0.59375 -2.765625 0.703125 -2.765625 0.71875 -2.765625 C 0.796875 -2.765625 0.828125 -2.796875 0.84375 -2.875 C 1.1875 -3.9375 1.84375 -4.1875 2.1875 -4.1875 C 2.375 -4.1875 2.71875 -4.09375 2.71875 -3.515625 C 2.71875 -3.203125 2.546875 -2.546875 2.1875 -1.140625 C 2.03125 -0.53125 1.671875 -0.109375 1.234375 -0.109375 C 1.171875 -0.109375 0.953125 -0.109375 0.734375 -0.234375 C 0.984375 -0.296875 1.203125 -0.5 1.203125 -0.78125 C 1.203125 -1.046875 0.984375 -1.125 0.84375 -1.125 C 0.53125 -1.125 0.296875 -0.875 0.296875 -0.546875 C 0.296875 -0.09375 0.78125 0.109375 1.21875 0.109375 C 1.890625 0.109375 2.25 -0.59375 2.265625 -0.640625 C 2.390625 -0.28125 2.75 0.109375 3.34375 0.109375 C 4.375 0.109375 4.9375 -1.171875 4.9375 -1.421875 C 4.9375 -1.53125 4.859375 -1.53125 4.828125 -1.53125 C 4.734375 -1.53125 4.71875 -1.484375 4.6875 -1.421875 C 4.359375 -0.34375 3.6875 -0.109375 3.375 -0.109375 C 2.984375 -0.109375 2.828125 -0.421875 2.828125 -0.765625 C 2.828125 -0.984375 2.875 -1.203125 2.984375 -1.640625 Z M 3.328125 -3.015625 "
   style="stroke:none;" />
</symbol>
<symbol
   id="textext-d5db42a0-4"
   overflow="visible">
<path
   id="path9163"
   d="M 2.328125 -4.4375 C 2.328125 -4.625 2.328125 -4.625 2.125 -4.625 C 1.671875 -4.1875 1.046875 -4.1875 0.765625 -4.1875 L 0.765625 -3.9375 C 0.921875 -3.9375 1.390625 -3.9375 1.765625 -4.125 L 1.765625 -0.578125 C 1.765625 -0.34375 1.765625 -0.25 1.078125 -0.25 L 0.8125 -0.25 L 0.8125 0 C 0.9375 0 1.796875 -0.03125 2.046875 -0.03125 C 2.265625 -0.03125 3.140625 0 3.296875 0 L 3.296875 -0.25 L 3.03125 -0.25 C 2.328125 -0.25 2.328125 -0.34375 2.328125 -0.578125 Z M 2.328125 -4.4375 "
   style="stroke:none;" />
</symbol>
<symbol
   id="textext-d5db42a0-5"
   overflow="visible">
<path
   id="path9166"
   d="M 6.5625 -2.296875 C 6.734375 -2.296875 6.921875 -2.296875 6.921875 -2.5 C 6.921875 -2.6875 6.734375 -2.6875 6.5625 -2.6875 L 1.171875 -2.6875 C 1 -2.6875 0.828125 -2.6875 0.828125 -2.5 C 0.828125 -2.296875 1 -2.296875 1.171875 -2.296875 Z M 6.5625 -2.296875 "
   style="stroke:none;" />
</symbol>
</g>
</defs>
<g
   id="textext-d5db42a0-6">
<g
   id="g9169"
   style="fill:rgb(0%,0%,0%);fill-opacity:1;">
  <use
   id="use9171"
   y="134.765"
   x="225.172"
   xlink:href="#textext-d5db42a0-0" />
</g>
<g
   id="g9173"
   style="fill:rgb(0%,0%,0%);fill-opacity:1;">
  <use
   id="use9175"
   y="134.765"
   x="223.432"
   xlink:href="#textext-d5db42a0-3" />
</g>
<g
   id="g9177"
   style="fill:rgb(0%,0%,0%);fill-opacity:1;">
  <use
   id="use9179"
   y="136.259"
   x="229.126"
   xlink:href="#textext-d5db42a0-4" />
</g>
<g
   id="g9181"
   style="fill:rgb(0%,0%,0%);fill-opacity:1;">
  <use
   id="use9183"
   y="134.765"
   x="236.363"
   xlink:href="#textext-d5db42a0-1" />
</g>
<g
   id="g9185"
   style="fill:rgb(0%,0%,0%);fill-opacity:1;">
  <use
   id="use9187"
   y="134.765"
   x="246.879"
   xlink:href="#textext-d5db42a0-5" />
</g>
<g
   id="g9189"
   style="fill:rgb(0%,0%,0%);fill-opacity:1;">
  <use
   id="use9191"
   y="134.765"
   x="254.628"
   xlink:href="#textext-d5db42a0-2" />
</g>
</g>
</g><g
       ns0:text="$a$"
       ns0:preamble=""
       transform="matrix(1.5,0,0,-1.5,54.696424,538.68373)"
       id="g9874"><defs
   id="defs9876">
<g
   id="g9878">
<symbol
   style="overflow:visible"
   overflow="visible"
   id="textext-b79f6a5e-0">
<path
   inkscape:connector-curvature="0"
   style="stroke:none"
   d="M 3.71875,-3.765625 C 3.53125,-4.140625 3.25,-4.40625 2.796875,-4.40625 c -1.15625,0 -2.390625,1.46875 -2.390625,2.921875 0,0.9375 0.546875,1.59375 1.3125,1.59375 0.203125,0 0.703125,-0.046875 1.296875,-0.75 0.078125,0.421875 0.4375,0.75 0.90625,0.75 0.359375,0 0.578125,-0.234375 0.75,-0.546875 0.15625,-0.359375 0.296875,-0.96875 0.296875,-0.984375 0,-0.109375 -0.09375,-0.109375 -0.125,-0.109375 -0.09375,0 -0.109375,0.046875 -0.140625,0.1875 -0.171875,0.640625 -0.34375,1.234375 -0.75,1.234375 -0.28125,0 -0.296875,-0.265625 -0.296875,-0.453125 0,-0.21875 0.015625,-0.3125 0.125,-0.75 C 3.890625,-1.71875 3.90625,-1.828125 4,-2.203125 L 4.359375,-3.59375 c 0.0625,-0.28125 0.0625,-0.296875 0.0625,-0.34375 0,-0.171875 -0.109375,-0.265625 -0.28125,-0.265625 -0.25,0 -0.390625,0.21875 -0.421875,0.4375 z M 3.078125,-1.1875 C 3.015625,-1 3.015625,-0.984375 2.875,-0.8125 2.4375,-0.265625 2.03125,-0.109375 1.75,-0.109375 c -0.5,0 -0.640625,-0.546875 -0.640625,-0.9375 0,-0.5 0.3125,-1.71875 0.546875,-2.1875 0.3125,-0.578125 0.75,-0.953125 1.15625,-0.953125 0.640625,0 0.78125,0.8125 0.78125,0.875 0,0.0625 -0.015625,0.125 -0.03125,0.171875 z m 0,0"
   id="path9881" />
</symbol>
</g>
</defs>
<g
   id="textext-b79f6a5e-1">
<g
   style="fill:#000000;fill-opacity:1"
   id="g9884">
  <use
   height="473.75"
   width="587.5"
   xlink:href="#textext-b79f6a5e-0"
   x="223.43201"
   y="134.765"
   id="use9886" />
</g>
</g>
</g><g
       id="g10460"
       transform="matrix(1.5,0,0,-1.5,24.22005,239.88724)"
       ns0:preamble=""
       ns0:text="$t_3=t_2+a/2$"><defs
   id="defs10462">
<g
   id="g10464">
<symbol
   id="textext-c08f7f1f-0"
   overflow="visible"
   style="overflow:visible">
<path
   id="path10467"
   d="m 2.046875,-3.984375 0.9375,0 c 0.203125,0 0.3125,0 0.3125,-0.203125 0,-0.109375 -0.109375,-0.109375 -0.28125,-0.109375 l -0.875,0 C 2.5,-5.71875 2.546875,-5.90625 2.546875,-5.96875 c 0,-0.171875 -0.125,-0.265625 -0.296875,-0.265625 -0.03125,0 -0.3125,0 -0.390625,0.359375 l -0.390625,1.578125 -0.9375,0 c -0.203125,0 -0.296875,0 -0.296875,0.1875 0,0.125 0.078125,0.125 0.28125,0.125 l 0.875,0 C 0.671875,-1.15625 0.625,-0.984375 0.625,-0.8125 0.625,-0.265625 1,0.109375 1.546875,0.109375 2.5625,0.109375 3.125,-1.34375 3.125,-1.421875 3.125,-1.53125 3.046875,-1.53125 3.015625,-1.53125 2.921875,-1.53125 2.90625,-1.5 2.859375,-1.390625 2.4375,-0.34375 1.90625,-0.109375 1.5625,-0.109375 c -0.203125,0 -0.3125,-0.125 -0.3125,-0.453125 0,-0.25 0.03125,-0.3125 0.0625,-0.484375 z m 0,0"
   style="stroke:none"
   inkscape:connector-curvature="0" />
</symbol>
<symbol
   id="textext-c08f7f1f-1"
   overflow="visible"
   style="overflow:visible">
<path
   id="path10470"
   d="M 3.71875,-3.765625 C 3.53125,-4.140625 3.25,-4.40625 2.796875,-4.40625 c -1.15625,0 -2.390625,1.46875 -2.390625,2.921875 0,0.9375 0.546875,1.59375 1.3125,1.59375 0.203125,0 0.703125,-0.046875 1.296875,-0.75 0.078125,0.421875 0.4375,0.75 0.90625,0.75 0.359375,0 0.578125,-0.234375 0.75,-0.546875 0.15625,-0.359375 0.296875,-0.96875 0.296875,-0.984375 0,-0.109375 -0.09375,-0.109375 -0.125,-0.109375 -0.09375,0 -0.109375,0.046875 -0.140625,0.1875 -0.171875,0.640625 -0.34375,1.234375 -0.75,1.234375 -0.28125,0 -0.296875,-0.265625 -0.296875,-0.453125 0,-0.21875 0.015625,-0.3125 0.125,-0.75 C 3.890625,-1.71875 3.90625,-1.828125 4,-2.203125 L 4.359375,-3.59375 c 0.0625,-0.28125 0.0625,-0.296875 0.0625,-0.34375 0,-0.171875 -0.109375,-0.265625 -0.28125,-0.265625 -0.25,0 -0.390625,0.21875 -0.421875,0.4375 z M 3.078125,-1.1875 C 3.015625,-1 3.015625,-0.984375 2.875,-0.8125 2.4375,-0.265625 2.03125,-0.109375 1.75,-0.109375 c -0.5,0 -0.640625,-0.546875 -0.640625,-0.9375 0,-0.5 0.3125,-1.71875 0.546875,-2.1875 0.3125,-0.578125 0.75,-0.953125 1.15625,-0.953125 0.640625,0 0.78125,0.8125 0.78125,0.875 0,0.0625 -0.015625,0.125 -0.03125,0.171875 z m 0,0"
   style="stroke:none"
   inkscape:connector-curvature="0" />
</symbol>
<symbol
   id="textext-c08f7f1f-2"
   overflow="visible"
   style="overflow:visible">
<path
   id="path10473"
   d="m 4.375,-7.09375 c 0.046875,-0.140625 0.046875,-0.171875 0.046875,-0.1875 0,-0.109375 -0.078125,-0.203125 -0.1875,-0.203125 -0.078125,0 -0.140625,0.03125 -0.171875,0.09375 l -3.46875,9.5 C 0.546875,2.25 0.546875,2.28125 0.546875,2.296875 0.546875,2.40625 0.640625,2.5 0.75,2.5 0.875,2.5 0.90625,2.421875 0.96875,2.25 z m 0,0"
   style="stroke:none"
   inkscape:connector-curvature="0" />
</symbol>
<symbol
   id="textext-c08f7f1f-3"
   overflow="visible"
   style="overflow:visible">
<path
   id="path10476"
   d="m 1.90625,-2.328125 c 0.546875,0 0.9375,0.375 0.9375,1.125 0,0.859375 -0.515625,1.125 -0.90625,1.125 -0.28125,0 -0.90625,-0.078125 -1.1875,-0.5 0.328125,0 0.40625,-0.234375 0.40625,-0.390625 0,-0.21875 -0.171875,-0.375 -0.390625,-0.375 -0.1875,0 -0.390625,0.125 -0.390625,0.40625 0,0.65625 0.71875,1.078125 1.5625,1.078125 0.96875,0 1.640625,-0.65625 1.640625,-1.34375 0,-0.546875 -0.4375,-1.09375 -1.203125,-1.25 0.71875,-0.265625 0.984375,-0.78125 0.984375,-1.21875 0,-0.546875 -0.625,-0.953125 -1.40625,-0.953125 -0.765625,0 -1.359375,0.375 -1.359375,0.9375 0,0.234375 0.15625,0.359375 0.359375,0.359375 0.21875,0 0.359375,-0.15625 0.359375,-0.34375 0,-0.203125 -0.140625,-0.359375 -0.359375,-0.375 0.25,-0.296875 0.71875,-0.375 0.984375,-0.375 0.3125,0 0.75,0.15625 0.75,0.75 0,0.296875 -0.09375,0.625 -0.28125,0.828125 -0.21875,0.265625 -0.421875,0.28125 -0.765625,0.3125 -0.171875,0.015625 -0.1875,0.015625 -0.21875,0.015625 -0.015625,0 -0.078125,0.015625 -0.078125,0.09375 0,0.09375 0.0625,0.09375 0.1875,0.09375 z m 0,0"
   style="stroke:none"
   inkscape:connector-curvature="0" />
</symbol>
<symbol
   id="textext-c08f7f1f-4"
   overflow="visible"
   style="overflow:visible">
<path
   id="path10479"
   d="m 3.515625,-1.265625 -0.234375,0 c -0.015625,0.15625 -0.09375,0.5625 -0.1875,0.625 -0.046875,0.046875 -0.578125,0.046875 -0.6875,0.046875 l -1.28125,0 c 0.734375,-0.640625 0.984375,-0.84375 1.390625,-1.171875 0.515625,-0.40625 1,-0.84375 1,-1.5 0,-0.84375 -0.734375,-1.359375 -1.625,-1.359375 -0.859375,0 -1.453125,0.609375 -1.453125,1.25 0,0.34375 0.296875,0.390625 0.375,0.390625 0.15625,0 0.359375,-0.125 0.359375,-0.375 0,-0.125 -0.046875,-0.375 -0.40625,-0.375 C 0.984375,-4.21875 1.453125,-4.375 1.78125,-4.375 c 0.703125,0 1.0625,0.546875 1.0625,1.109375 0,0.609375 -0.4375,1.078125 -0.65625,1.328125 L 0.515625,-0.265625 C 0.4375,-0.203125 0.4375,-0.1875 0.4375,0 l 2.875,0 z m 0,0"
   style="stroke:none"
   inkscape:connector-curvature="0" />
</symbol>
<symbol
   id="textext-c08f7f1f-5"
   overflow="visible"
   style="overflow:visible">
<path
   id="path10482"
   d="m 6.84375,-3.265625 c 0.15625,0 0.34375,0 0.34375,-0.1875 C 7.1875,-3.65625 7,-3.65625 6.859375,-3.65625 l -5.96875,0 c -0.140625,0 -0.328125,0 -0.328125,0.203125 0,0.1875 0.1875,0.1875 0.328125,0.1875 z m 0.015625,1.9375 c 0.140625,0 0.328125,0 0.328125,-0.203125 0,-0.1875 -0.1875,-0.1875 -0.34375,-0.1875 l -5.953125,0 c -0.140625,0 -0.328125,0 -0.328125,0.1875 0,0.203125 0.1875,0.203125 0.328125,0.203125 z m 0,0"
   style="stroke:none"
   inkscape:connector-curvature="0" />
</symbol>
<symbol
   id="textext-c08f7f1f-6"
   overflow="visible"
   style="overflow:visible">
<path
   id="path10485"
   d="m 4.078125,-2.296875 2.78125,0 C 7,-2.296875 7.1875,-2.296875 7.1875,-2.5 7.1875,-2.6875 7,-2.6875 6.859375,-2.6875 l -2.78125,0 0,-2.796875 c 0,-0.140625 0,-0.328125 -0.203125,-0.328125 -0.203125,0 -0.203125,0.1875 -0.203125,0.328125 l 0,2.796875 -2.78125,0 c -0.140625,0 -0.328125,0 -0.328125,0.1875 0,0.203125 0.1875,0.203125 0.328125,0.203125 l 2.78125,0 0,2.796875 c 0,0.140625 0,0.328125 0.203125,0.328125 0.203125,0 0.203125,-0.1875 0.203125,-0.328125 z m 0,0"
   style="stroke:none"
   inkscape:connector-curvature="0" />
</symbol>
<symbol
   id="textext-c08f7f1f-7"
   overflow="visible"
   style="overflow:visible">
<path
   id="path10488"
   d="m 1.265625,-0.765625 1.0625,-1.03125 c 1.546875,-1.375 2.140625,-1.90625 2.140625,-2.90625 0,-1.140625 -0.890625,-1.9375 -2.109375,-1.9375 -1.125,0 -1.859375,0.921875 -1.859375,1.8125 0,0.546875 0.5,0.546875 0.53125,0.546875 0.171875,0 0.515625,-0.109375 0.515625,-0.53125 0,-0.25 -0.1875,-0.515625 -0.53125,-0.515625 -0.078125,0 -0.09375,0 -0.125,0.015625 0.21875,-0.65625 0.765625,-1.015625 1.34375,-1.015625 0.90625,0 1.328125,0.8125 1.328125,1.625 C 3.5625,-3.90625 3.078125,-3.125 2.515625,-2.5 l -1.90625,2.125 C 0.5,-0.265625 0.5,-0.234375 0.5,0 l 3.703125,0 0.265625,-1.734375 -0.234375,0 C 4.171875,-1.4375 4.109375,-1 4,-0.84375 3.9375,-0.765625 3.28125,-0.765625 3.0625,-0.765625 z m 0,0"
   style="stroke:none"
   inkscape:connector-curvature="0" />
</symbol>
</g>
</defs>
<g
   id="textext-c08f7f1f-8">
<g
   id="g10491"
   style="fill:#000000;fill-opacity:1">
  <use
   id="use10493"
   y="134.765"
   x="223.43201"
   xlink:href="#textext-c08f7f1f-0"
   width="587.5"
   height="473.75" />
</g>
<g
   id="g10495"
   style="fill:#000000;fill-opacity:1">
  <use
   id="use10497"
   y="136.259"
   x="227.03"
   xlink:href="#textext-c08f7f1f-3"
   width="587.5"
   height="473.75" />
</g>
<g
   id="g10499"
   style="fill:#000000;fill-opacity:1">
  <use
   id="use10501"
   y="134.765"
   x="234.26601"
   xlink:href="#textext-c08f7f1f-5"
   width="587.5"
   height="473.75" />
</g>
<g
   id="g10503"
   style="fill:#000000;fill-opacity:1">
  <use
   id="use10505"
   y="134.765"
   x="244.783"
   xlink:href="#textext-c08f7f1f-0"
   width="587.5"
   height="473.75" />
</g>
<g
   id="g10507"
   style="fill:#000000;fill-opacity:1">
  <use
   id="use10509"
   y="136.259"
   x="248.38"
   xlink:href="#textext-c08f7f1f-4"
   width="587.5"
   height="473.75" />
</g>
<g
   id="g10511"
   style="fill:#000000;fill-opacity:1">
  <use
   id="use10513"
   y="134.765"
   x="255.063"
   xlink:href="#textext-c08f7f1f-6"
   width="587.5"
   height="473.75" />
</g>
<g
   id="g10515"
   style="fill:#000000;fill-opacity:1">
  <use
   id="use10517"
   y="134.765"
   x="265.026"
   xlink:href="#textext-c08f7f1f-1"
   width="587.5"
   height="473.75" />
  <use
   id="use10519"
   y="134.765"
   x="270.29224"
   xlink:href="#textext-c08f7f1f-2"
   width="587.5"
   height="473.75" />
</g>
<g
   id="g10521"
   style="fill:#000000;fill-opacity:1">
  <use
   id="use10523"
   y="134.765"
   x="275.27301"
   xlink:href="#textext-c08f7f1f-7"
   width="587.5"
   height="473.75" />
</g>
</g>
</g></g></svg>