<?xml version="1.0" encoding="UTF-8" standalone="no"?>
<!-- Created with Inkscape (http://www.inkscape.org/) -->
<svg
   xmlns:dc="http://purl.org/dc/elements/1.1/"
   xmlns:cc="http://creativecommons.org/ns#"
   xmlns:rdf="http://www.w3.org/1999/02/22-rdf-syntax-ns#"
   xmlns:svg="http://www.w3.org/2000/svg"
   xmlns="http://www.w3.org/2000/svg"
   xmlns:xlink="http://www.w3.org/1999/xlink"
   xmlns:sodipodi="http://sodipodi.sourceforge.net/DTD/sodipodi-0.dtd"
   xmlns:inkscape="http://www.inkscape.org/namespaces/inkscape"
   version="1.0"
   x="0.0000000"
   y="0.0000000"
   width="48.000000px"
   height="48.000000px"
   id="svg1"
   sodipodi:version="0.32"
   inkscape:version="0.45+devel"
   sodipodi:docname="folder-new.svg"
   sodipodi:docbase="/home/lapo/Icone/cvs/gnome-icon-theme/scalable/places"
   inkscape:output_extension="org.inkscape.output.svg.inkscape">
  <metadata
     id="metadata162">
    <rdf:RDF>
      <cc:Work
         rdf:about="">
        <dc:format>image/svg+xml</dc:format>
        <dc:type
           rdf:resource="http://purl.org/dc/dcmitype/StillImage" />
        <dc:title>Folder</dc:title>
        <dc:creator>
          <cc:Agent>
            <dc:title>Jakub Steiner</dc:title>
          </cc:Agent>
        </dc:creator>
        <dc:date>2005-02-01</dc:date>
        <cc:license
           rdf:resource="http://creativecommons.org/licenses/GPL/2.0/" />
        <dc:identifier>http://jimmac.musichall.cz/</dc:identifier>
        <dc:subject>
          <rdf:Bag>
            <rdf:li>folder</rdf:li>
            <rdf:li>directory</rdf:li>
            <rdf:li>storage</rdf:li>
          </rdf:Bag>
        </dc:subject>
        <dc:contributor>
          <cc:Agent>
            <dc:title>Ulisse Perusin</dc:title>
          </cc:Agent>
        </dc:contributor>
      </cc:Work>
      <cc:License
         rdf:about="http://creativecommons.org/licenses/GPL/2.0/">
        <cc:permits
           rdf:resource="http://web.resource.org/cc/Reproduction" />
        <cc:permits
           rdf:resource="http://web.resource.org/cc/Distribution" />
        <cc:requires
           rdf:resource="http://web.resource.org/cc/Notice" />
        <cc:permits
           rdf:resource="http://web.resource.org/cc/DerivativeWorks" />
        <cc:requires
           rdf:resource="http://web.resource.org/cc/ShareAlike" />
        <cc:requires
           rdf:resource="http://web.resource.org/cc/SourceCode" />
      </cc:License>
    </rdf:RDF>
  </metadata>
  <sodipodi:namedview
     id="base"
     pagecolor="#ffffff"
     bordercolor="#e76f6f"
     borderopacity="0.38039216"
     inkscape:pageopacity="0.0"
     inkscape:pageshadow="2"
     inkscape:window-width="1014"
     inkscape:window-height="678"
     inkscape:cy="6.820667"
     inkscape:cx="9.3509846"
     inkscape:zoom="1"
     inkscape:document-units="px"
     showgrid="false"
     inkscape:window-x="43"
     inkscape:window-y="125"
     inkscape:current-layer="layer2"
     inkscape:showpageshadow="false"
     inkscape:object-paths="true"
     inkscape:object-nodes="true"
     objecttolerance="7"
     gridtolerance="7"
     guidetolerance="7">
    <inkscape:grid
       type="xygrid"
       id="grid5404"
       spacingx="0.5px"
       spacingy="0.5px"
       empspacing="2" />
  </sodipodi:namedview>
  <defs
     id="defs3">
    <linearGradient
       id="linearGradient2378">
      <stop
         id="stop2380"
         offset="0"
         style="stop-color:#ffffff;stop-opacity:1;" />
      <stop
         style="stop-color:#fefede;stop-opacity:0.91836733;"
         offset="0.25"
         id="stop4146" />
      <stop
         style="stop-color:#f5f328;stop-opacity:1;"
         offset="0.5"
         id="stop2386" />
      <stop
         id="stop2382"
         offset="1"
         style="stop-color:#f5f32d;stop-opacity:0.12234043;" />
    </linearGradient>
    <radialGradient
       inkscape:collect="always"
       xlink:href="#linearGradient2378"
       id="radialGradient2033"
       gradientUnits="userSpaceOnUse"
       cx="38.658855"
       cy="9.3411446"
       fx="38.658855"
       fy="9.3411446"
       r="8.341651" />
    <linearGradient
       inkscape:collect="always"
       id="linearGradient5990">
      <stop
         style="stop-color:#5f615c;stop-opacity:1"
         offset="0"
         id="stop5992" />
      <stop
         style="stop-color:#50524f;stop-opacity:1"
         offset="1"
         id="stop5994" />
    </linearGradient>
    <linearGradient
       id="linearGradient5984"
       inkscape:collect="always">
      <stop
         id="stop5986"
         offset="0"
         style="stop-color:#5f615c;stop-opacity:1" />
      <stop
         id="stop5988"
         offset="1"
         style="stop-color:#50524f;stop-opacity:1" />
    </linearGradient>
    <linearGradient
       inkscape:collect="always"
       id="linearGradient6016">
      <stop
         style="stop-color:#000000;stop-opacity:1;"
         offset="0"
         id="stop6018" />
      <stop
         style="stop-color:#000000;stop-opacity:0;"
         offset="1"
         id="stop6020" />
    </linearGradient>
    <linearGradient
       id="linearGradient5985">
      <stop
         style="stop-color:#ffffff;stop-opacity:1;"
         offset="0"
         id="stop5987" />
      <stop
         style="stop-color:#ffffff;stop-opacity:0.13333334;"
         offset="1"
         id="stop5989" />
    </linearGradient>
    <linearGradient
       id="linearGradient4734">
      <stop
         style="stop-color:#cecfbf;stop-opacity:1"
         offset="0"
         id="stop4736" />
      <stop
         id="stop5982"
         offset="0.69824016"
         style="stop-color:#adae95;stop-opacity:1;" />
      <stop
         style="stop-color:#949575;stop-opacity:1;"
         offset="1"
         id="stop4738" />
    </linearGradient>
    <linearGradient
       id="linearGradient235">
      <stop
         style="stop-color:#4f4f46;stop-opacity:1"
         offset="0.0000000"
         id="stop236" />
      <stop
         style="stop-color:#a7a997;stop-opacity:1"
         offset="1.0000000"
         id="stop237" />
    </linearGradient>
    <linearGradient
       inkscape:collect="always"
       xlink:href="#linearGradient235"
       id="linearGradient253"
       gradientTransform="matrix(1.0732403,0,0,0.9371473,-1.1247905,3.7529185e-2)"
       x1="25.273735"
       y1="46.91095"
       x2="24.983023"
       y2="8.3744106"
       gradientUnits="userSpaceOnUse" />
    <linearGradient
       inkscape:collect="always"
       xlink:href="#linearGradient4734"
       id="linearGradient4740"
       x1="28"
       y1="18"
       x2="28.016411"
       y2="38.807583"
       gradientUnits="userSpaceOnUse"
       gradientTransform="translate(4,0)" />
    <linearGradient
       inkscape:collect="always"
       xlink:href="#linearGradient5990"
       id="linearGradient6045"
       x1="19"
       y1="25"
       x2="7"
       y2="37"
       gradientUnits="userSpaceOnUse"
       gradientTransform="translate(2,0)" />
    <linearGradient
       inkscape:collect="always"
       xlink:href="#linearGradient5984"
       id="linearGradient6053"
       x1="6"
       y1="9"
       x2="5.7599545"
       y2="27.345419"
       gradientUnits="userSpaceOnUse"
       gradientTransform="translate(1,0)" />
    <radialGradient
       inkscape:collect="always"
       xlink:href="#linearGradient6016"
       id="radialGradient6664"
       gradientUnits="userSpaceOnUse"
       gradientTransform="matrix(1,0,0,0.8571429,0,7.7142857)"
       cx="7.5"
       cy="54"
       fx="7.5"
       fy="54"
       r="3.5" />
    <linearGradient
       inkscape:collect="always"
       xlink:href="#linearGradient6016"
       id="linearGradient6666"
       gradientUnits="userSpaceOnUse"
       gradientTransform="matrix(0.974359,0,0,0.9999324,-0.8974359,-2.9973634)"
       spreadMethod="reflect"
       x1="24.027025"
       y1="42.500237"
       x2="24.038048"
       y2="39.000473" />
    <radialGradient
       inkscape:collect="always"
       xlink:href="#linearGradient6016"
       id="radialGradient6668"
       gradientUnits="userSpaceOnUse"
       gradientTransform="matrix(1,0,0,0.8571429,0,7.7142857)"
       cx="7.5"
       cy="54"
       fx="7.5"
       fy="54"
       r="3.5" />
    <linearGradient
       inkscape:collect="always"
       xlink:href="#linearGradient5985"
       id="linearGradient5987"
       gradientUnits="userSpaceOnUse"
       x1="10"
       y1="9"
       x2="22.25"
       y2="37.000473"
       gradientTransform="translate(1,0)" />
    <linearGradient
       inkscape:collect="always"
       xlink:href="#linearGradient5985"
       id="linearGradient6054"
       gradientUnits="userSpaceOnUse"
       gradientTransform="translate(2,0)"
       x1="23"
       y1="16"
       x2="30"
       y2="30" />
  </defs>
  <g
     inkscape:groupmode="layer"
     id="layer1"
     inkscape:label="pixmap"
     style="display:inline" />
  <g
     inkscape:groupmode="layer"
     id="layer2"
     inkscape:label="vectors"
     style="display:inline">
    <g
       id="g6659"
       style="opacity:0.20392157"
       transform="translate(1,1)">
      <path
         sodipodi:end="4.712389"
         sodipodi:start="1.5707963"
         transform="matrix(0.8571428,0,0,1.1665878,-3.4285713,-23.495778)"
         d="M 7.5000001,57 A 3.5,3 0 1 1 7.5000001,51 L 7.5,54 z"
         sodipodi:ry="3"
         sodipodi:rx="3.5"
         sodipodi:cy="54"
         sodipodi:cx="7.5"
         id="path5429"
         style="opacity:1;fill:url(#radialGradient6664);fill-opacity:1;stroke:none;stroke-width:1;stroke-linecap:round;stroke-linejoin:miter;stroke-miterlimit:4;stroke-dasharray:none;stroke-opacity:1"
         sodipodi:type="arc" />
      <rect
         y="36.000473"
         x="3.0000002"
         height="6.999527"
         width="38"
         id="rect6024"
         style="opacity:1;fill:url(#linearGradient6666);fill-opacity:1;stroke:none;stroke-width:1;stroke-linecap:round;stroke-linejoin:miter;stroke-miterlimit:4;stroke-dasharray:none;stroke-opacity:1" />
      <path
         sodipodi:end="4.712389"
         sodipodi:start="1.5707963"
         transform="matrix(-0.8571428,0,0,1.1665878,47.428571,-23.495506)"
         d="M 7.5000001,57 A 3.5,3 0 1 1 7.5000001,51 L 7.5,54 z"
         sodipodi:ry="3"
         sodipodi:rx="3.5"
         sodipodi:cy="54"
         sodipodi:cx="7.5"
         id="path6034"
         style="opacity:1;fill:url(#radialGradient6668);fill-opacity:1;stroke:none;stroke-width:1;stroke-linecap:round;stroke-linejoin:miter;stroke-miterlimit:4;stroke-dasharray:none;stroke-opacity:1"
         sodipodi:type="arc" />
    </g>
    <path
       d="M 4.5,6.5 C 4.0328784,6.5 3.5,7.0079308 3.5,7.5 L 3.5,38.5 C 3.5,40 4.5,40.5 7.5,40.5 L 40.5,39.5 C 41,39.5 41.5,39 41.5,38.5 L 41.5,10.5 C 41.5,9.9564016 41.001072,9.5 40.5,9.5 L 23.5,9.5 C 23.161432,9.5 22.698713,9.2731791 22.5,9 L 20,7 C 19.78113,6.6991106 19.372916,6.5 19,6.5 L 4.5,6.5 z"
       style="fill:url(#linearGradient253);fill-opacity:1;fill-rule:evenodd;stroke:url(#linearGradient6053);stroke-width:1;stroke-miterlimit:4;stroke-opacity:1"
       id="path895"
       sodipodi:nodetypes="ccccccccccccc" />
    <path
       style="opacity:0.34901961;fill:none;fill-opacity:1;fill-rule:evenodd;stroke:url(#linearGradient5987);stroke-width:1;stroke-linejoin:round;stroke-miterlimit:4;stroke-opacity:1;display:inline"
       d="M 4.5,7.5 C 4.5006383,17.935557 4.4987222,28.371118 4.5009601,38.806672 C 5.2575446,39.780492 6.9372199,39.409865 8.1036905,39.482228 C 19.235798,39.155125 29.36787,38.82557 40.5,38.5 C 40.5,29.166667 40.5,19.833333 40.5,10.5 C 34.417352,10.492699 29.334057,10.514619 23.251814,10.489009 C 22.092661,10.332368 21.398305,9.2533341 20.460178,8.6493924 C 19.779767,8.23613 19.281507,7.3341686 18.396048,7.5 C 13.764032,7.5 9.132016,7.5 4.5,7.5 z"
       id="path6021"
       sodipodi:nodetypes="ccccccccc" />
    <g
       id="g891"
       transform="matrix(0.186703,0,0,0.186703,-19.1073,57.62299)" />
    <path
       style="color:#000000;fill:url(#linearGradient4740);fill-opacity:1;fill-rule:evenodd;stroke:url(#linearGradient6045);stroke-width:0.99999988;stroke-linecap:butt;stroke-linejoin:round;marker:none;marker-start:none;marker-mid:none;marker-end:none;stroke-miterlimit:4;stroke-dashoffset:0;stroke-opacity:1;visibility:visible;display:inline;overflow:visible"
       d="M 11.5,17.5 L 19.5,17.5 C 20.241734,17.5 21.180803,17.001193 21.5,16.5 C 21.636743,16.285291 22.410308,14.630498 22.5,14.5 C 22.798787,14.065276 23.430935,13.5 24,13.5 L 45,13.5 C 45.802837,13.5 46.5,14.200315 46.5,15 L 43.5,37 C 43.5,39 42,40.5 39.5,40.5 L 7.5,40.5 C 7.0692612,40.489268 5.828125,40.5 5.2365176,40.317667 C 6,40.365567 6.5,39.5 6.5,39 L 8.5,20.5 C 8.5,19 9.6326086,17.5 11.5,17.5 z"
       id="rect337"
       sodipodi:nodetypes="czzszccccccccc"
       inkscape:r_cx="true"
       inkscape:r_cy="true" />
    <path
       style="opacity:0.65490196;color:#000000;fill:url(#linearGradient6054);fill-opacity:1;fill-rule:evenodd;stroke:none;stroke-width:0.99999987999999995;stroke-linecap:butt;stroke-linejoin:round;marker:none;stroke-miterlimit:4;stroke-dashoffset:0;stroke-opacity:1;visibility:visible;display:inline;overflow:visible"
       d="M 44.6875,13.96875 C 37.460583,14.042748 31.228782,13.978389 24,14 C 22.190936,14.537556 22.52554,17.241846 20.671503,17.731052 C 18.980127,18.264665 17.5,18 15.43064,18.003474 C 13.987968,18.000878 12.389254,18.021644 11.002961,18.042479 C 9.9201775,18.298107 9.2728198,18.993967 9,20 L 7,39 C 6.9201491,39.464227 6.9054799,39.785085 6.6875,40 L 40.212116,39.987509 C 42.572352,39.837622 43.217256,37.316984 43.216328,35.369132 C 44.142243,28.933303 45.07507,21.498471 46,15.0625 C 45.976065,14.403413 45.302762,13.960326 44.6875,13.96875 z M 45,15 L 42.03125,36.65625 C 42.246705,38.24127 40.565176,39.306703 39.129756,39.002223 C 28.42047,39.052727 18.706187,38.947635 8,39.03125 C 8.6758947,33.065059 9.3485051,27.092092 10.069903,21.135061 C 10.840351,19.020755 13.737231,20.367177 15.447317,20.004647 C 17.721273,19.863813 20.353893,20.539351 22.2446,18.927471 C 23.315804,17.714394 23.197593,15 25.5,15 L 45,15 z"
       id="path6035"
       sodipodi:nodetypes="ccccccccccccccccccccc" />
    <path
       sodipodi:type="arc"
       style="opacity:1;fill:#ffffff;fill-opacity:1;stroke:none;stroke-width:1;stroke-linecap:round;stroke-linejoin:round;stroke-miterlimit:4;stroke-dasharray:none;stroke-opacity:1"
       id="path5401"
       sodipodi:cx="6.609375"
       sodipodi:cy="10"
       sodipodi:rx="0.609375"
       sodipodi:ry="0.5"
       d="M 7.21875,10 A 0.609375,0.5 0 1 1 6,10 A 0.609375,0.5 0 1 1 7.21875,10 z"
       transform="matrix(1.2307692,0,0,1.5,-3.5922052,-7.4014558)" />
    <g
       style="display:inline"
       id="g2029"
       transform="translate(-2,2)">
      <path
         sodipodi:type="arc"
         style="fill:url(#radialGradient2033);fill-opacity:1;fill-rule:evenodd;stroke:none;stroke-width:1px;stroke-linecap:butt;stroke-linejoin:miter;stroke-opacity:1;display:inline"
         id="path2388"
         sodipodi:cx="38.658855"
         sodipodi:cy="9.3411446"
         sodipodi:rx="8.341651"
         sodipodi:ry="8.341651"
         d="M 47.000506 9.3411446 A 8.341651 8.341651 0 1 1  30.317204,9.3411446 A 8.341651 8.341651 0 1 1  47.000506 9.3411446 z"
         transform="matrix(1.14985,0,0,1.14985,-6.073881,0.554685)" />
      <path
         sodipodi:type="star"
         style="opacity:1;color:black;fill:white;fill-opacity:1;fill-rule:evenodd;stroke:none;stroke-width:0.5;stroke-linecap:butt;stroke-linejoin:miter;marker:none;marker-start:none;marker-mid:none;marker-end:none;stroke-miterlimit:4;stroke-dasharray:none;stroke-dashoffset:0;stroke-opacity:1;visibility:visible;display:inline;overflow:visible"
         id="path1345"
         sodipodi:sides="5"
         sodipodi:cx="36.9375"
         sodipodi:cy="11.125"
         sodipodi:r1="8.755579"
         sodipodi:r2="5.0676599"
         sodipodi:arg1="0.52359878"
         sodipodi:arg2="1.1519173"
         inkscape:flatsided="false"
         inkscape:rounded="0.18352206"
         inkscape:randomized="0"
         d="M 44.520054,15.50279 C 44.012883,16.381236 39.925351,15.341967 38.998703,15.754538 C 38.072055,16.167108 36.109289,19.900142 35.117113,19.689249 C 34.124936,19.478355 33.850222,15.26973 33.171495,14.515926 C 32.492767,13.762123 28.335913,13.048993 28.229885,12.040207 C 28.123857,11.031421 32.041607,9.4696164 32.548778,8.5911701 C 33.055949,7.7127238 32.449637,3.5389508 33.376285,3.1263806 C 34.302933,2.7138103 36.998949,5.957187 37.991126,6.1680807 C 38.983302,6.3789743 42.765436,4.5125708 43.444163,5.2663741 C 44.122891,6.0201775 41.871371,9.5864995 41.977399,10.595285 C 42.083426,11.604071 45.027225,14.624343 44.520054,15.50279 z "
         transform="matrix(0.674116,0.299577,-0.299577,0.674116,16.98558,-7.128679)" />
    </g>
  </g>
</svg>
