<?xml version="1.0" encoding="UTF-8" standalone="no"?>
<!-- Created with Inkscape (http://www.inkscape.org/) -->

<svg
   xmlns:dc="http://purl.org/dc/elements/1.1/"
   xmlns:cc="http://creativecommons.org/ns#"
   xmlns:rdf="http://www.w3.org/1999/02/22-rdf-syntax-ns#"
   xmlns:svg="http://www.w3.org/2000/svg"
   xmlns="http://www.w3.org/2000/svg"
   xmlns:sodipodi="http://sodipodi.sourceforge.net/DTD/sodipodi-0.dtd"
   xmlns:inkscape="http://www.inkscape.org/namespaces/inkscape"
   width="50.760441"
   height="85.867287"
   id="svg2"
   sodipodi:version="0.32"
   inkscape:version="0.48.0 r9654"
   sodipodi:docname="integrator.svg"
   inkscape:output_extension="org.inkscape.output.svg.inkscape"
   version="1.0">
  <defs
     id="defs4">
    <inkscape:perspective
       sodipodi:type="inkscape:persp3d"
       inkscape:vp_x="0 : 526.18109 : 1"
       inkscape:vp_y="0 : 1000 : 0"
       inkscape:vp_z="744.09448 : 526.18109 : 1"
       inkscape:persp3d-origin="372.04724 : 350.78739 : 1"
       id="perspective10" />
  </defs>
  <sodipodi:namedview
     id="base"
     pagecolor="#ffffff"
     bordercolor="#666666"
     borderopacity="1.0"
     gridtolerance="10000"
     guidetolerance="10"
     objecttolerance="10"
     inkscape:pageopacity="0.0"
     inkscape:pageshadow="2"
     inkscape:zoom="0.35"
     inkscape:cx="-1116.4878"
     inkscape:cy="497.75737"
     inkscape:document-units="px"
     inkscape:current-layer="layer1"
     showgrid="false"
     inkscape:window-width="1280"
     inkscape:window-height="690"
     inkscape:window-x="0"
     inkscape:window-y="24"
     fit-margin-top="2"
     fit-margin-left="5"
     fit-margin-right="5"
     fit-margin-bottom="2"
     inkscape:window-maximized="0" />
  <metadata
     id="metadata7">
    <rdf:RDF>
      <cc:Work
         rdf:about="">
        <dc:format>image/svg+xml</dc:format>
        <dc:type
           rdf:resource="http://purl.org/dc/dcmitype/StillImage" />
      </cc:Work>
    </rdf:RDF>
  </metadata>
  <g
     inkscape:label="Layer 1"
     inkscape:groupmode="layer"
     id="layer1"
     transform="translate(-598.13393,-838.63937)">
    <path
       d="m 628.99891,857.61327 c 1.03922,-13.50984 3.46406,-15.35734 6.81265,-15.35734 0.69281,0 3.00219,0.11547 4.61875,1.5011 -2.07844,0.3464 -2.65578,2.07843 -2.65578,3.11765 0,2.07844 1.61656,3.00219 3.00219,3.00219 1.50109,0 3.11765,-0.92375 3.11765,-3.11766 0,-3.57953 -3.695,-6.11984 -8.19828,-6.11984 -6.92812,0 -9.81483,7.15906 -11.08499,12.70156 -0.92375,4.0414 -3.57953,24.82576 -4.15687,33.83232 l -1.38562,18.24405 c -1.03922,12.12421 -3.695,15.4728 -7.85187,15.4728 -0.92375,0 -3.23313,-0.23094 -4.73422,-1.61656 2.19391,-0.23094 2.77125,-1.96297 2.77125,-3.00219 0,-2.07843 -1.61656,-3.11765 -3.00219,-3.11765 -1.50109,0 -3.11765,1.03922 -3.11765,3.23312 0,3.46406 3.695,6.11984 8.08281,6.11984 7.04358,0 10.50764,-6.46625 12.12421,-13.04796 0.92375,-3.81047 3.57952,-25.28764 4.27234,-33.48591 l 1.38562,-18.35952 z"
       id="path2383"
       style="fill-opacity:1"
       inkscape:connector-curvature="0" />
  </g>
</svg>
