<?xml version="1.0" encoding="utf-8"?>
<!-- Generator: Adobe Illustrator 11.0, SVG Export Plug-In  -->
<!DOCTYPE svg PUBLIC "-//W3C//DTD SVG 1.0//EN"    "http://www.w3.org/TR/2001/REC-SVG-20010904/DTD/svg10.dtd" [
	<!ENTITY ns_flows "http://ns.adobe.com/Flows/1.0/">
	<!ENTITY ns_svg "http://www.w3.org/2000/svg">
	<!ENTITY ns_xlink "http://www.w3.org/1999/xlink">
]>
<svg  xmlns="&ns_svg;" xmlns:xlink="&ns_xlink;" xmlns:a="http://ns.adobe.com/AdobeSVGViewerExtensions/3.0/"
	 width="48" height="48" viewBox="-1.28027 -1.39844 48 48" xml:space="preserve">
	<defs>
	</defs>
	<g>
		<linearGradient id="XMLID_1_" gradientUnits="userSpaceOnUse" x1="14.13818" y1="4.67041" x2="25.26008" y2="45.45075">
			<stop  offset="0" style="stop-color:#FFFFFF"/>
			<stop  offset="0.34329" style="stop-color:#FBFCFE"/>
			<stop  offset="0.6717" style="stop-color:#F0F4F9"/>
			<stop  offset="0.99378" style="stop-color:#DCE7F2"/>
			<stop  offset="1" style="stop-color:#DCE7F2"/>
			<a:midPointStop  offset="0" style="stop-color:#FFFFFF"/>
			<a:midPointStop  offset="0.71593" style="stop-color:#FFFFFF"/>
			<a:midPointStop  offset="1" style="stop-color:#DCE7F2"/>
		</linearGradient>
		<polygon fill="url(#XMLID_1_)" stroke="#565248" stroke-linecap="round" stroke-linejoin="round" points="38.38086,36.03711 
			9.14355,46.60156 0.5,10.73584 29.43164,0.5 "/>
		<linearGradient id="XMLID_2_" gradientUnits="userSpaceOnUse" x1="15.99365" y1="9.46191" x2="23.49201" y2="40.20512">
			<stop  offset="0" style="stop-color:#F0F0F0"/>
			<stop  offset="0.29989" style="stop-color:#DADADA"/>
			<stop  offset="0.5" style="stop-color:#D1D1D1"/>
			<stop  offset="0.70146" style="stop-color:#CFCFCE"/>
			<stop  offset="0.83083" style="stop-color:#CAC9C6"/>
			<stop  offset="0.93957" style="stop-color:#C1BEB7"/>
			<stop  offset="1" style="stop-color:#BAB5AB"/>
			<a:midPointStop  offset="0" style="stop-color:#F0F0F0"/>
			<a:midPointStop  offset="0.4" style="stop-color:#F0F0F0"/>
			<a:midPointStop  offset="0.5" style="stop-color:#D1D1D1"/>
			<a:midPointStop  offset="0.78927" style="stop-color:#D1D1D1"/>
			<a:midPointStop  offset="1" style="stop-color:#BAB5AB"/>
		</linearGradient>
		<polygon fill="url(#XMLID_2_)" points="35.31152,34.01563 10.81104,42.86719 3.56836,12.81201 27.81348,4.23389 "/>
		<polygon fill="#595959" points="28.14844,25.08887 25.47949,28.15918 22.85986,24.6543 24.01367,23.16895 "/>
		<polygon fill="#595959" points="24.46484,29.09961 23.58594,33.07031 19.61035,31.24219 19.91406,29.38672 "/>
		<polygon fill="#595959" points="23.75977,35.0127 24.69434,38.9707 20.31934,39.05273 19.78613,37.25 "/>
		<polygon fill="#595959" points="32.90137,22.22607 29.16406,23.83008 28.3291,19.53564 30.0127,18.69971 "/>
		<path fill="#595959" d="M29.97656,38.71582c-1.09082-1.29883-1.75-2.97266-1.75-4.80176c0-4.12891,3.3457-7.47461,7.47266-7.47461
			c0.0625,0,0.12305,0.00781,0.18555,0.00977l-1.44336-5.16113c-6.41602,0.63184-11.43018,6.04199-11.43018,12.62598
			c0,2.44336,0.70264,4.71777,1.8999,6.6543L29.97656,38.71582z"/>
		<path fill="#595959" d="M20.24121,34.62207v-1.43555h-1.50244c-0.11377-0.48047-0.31787-0.9248-0.59521-1.31445l1.09814-1.09863
			l-1.01563-1.01465l-1.12109,1.12109c-0.3877-0.25098-0.82324-0.43359-1.29102-0.5293v-1.5918h-1.43604v1.58008
			c-0.47852,0.08594-0.92383,0.2627-1.32178,0.51074l-1.09131-1.09082l-1.01514,1.01465l1.05322,1.05273
			c-0.29492,0.40137-0.51172,0.86133-0.62988,1.36035H9.95068v1.43555h1.36133c0.08105,0.54297,0.27441,1.04883,0.55957,1.49121
			l-0.92188,0.92188l1.01514,1.01465l0.89893-0.89844c0.44385,0.31543,0.95703,0.53711,1.51416,0.6377v1.26074h1.43604v-1.27246
			c0.5459-0.11133,1.04639-0.34277,1.47949-0.66016l0.93311,0.93262l1.01514-1.01465l-0.97119-0.97168
			c0.26855-0.43066,0.45166-0.91797,0.5293-1.44141H20.24121z M16.15527,35.97949l0.04102,0.04102
			c-0.12109,0.07031-0.24805,0.12988-0.38232,0.17773v-0.07813c-0.22754,0.07324-0.46631,0.12402-0.71826,0.12402
			s-0.49023-0.05078-0.71777-0.12402v0.10254c-0.14404-0.04492-0.28076-0.10254-0.41064-0.1748l0.06885-0.06836
			c-0.4375-0.22461-0.7915-0.57813-1.01514-1.01563l-0.03369,0.0332c-0.0542-0.11914-0.09473-0.24512-0.12744-0.375h0.02051
			c-0.07422-0.22754-0.12402-0.46582-0.12402-0.71777c0-1.29199,1.04736-2.33984,2.33936-2.33984
			c1.29248,0,2.33984,1.04785,2.33984,2.33984C17.43555,34.8125,16.91211,35.5918,16.15527,35.97949z"/>
		<path fill="#314E6C" d="M13.61621,16.98584c-0.22754,0.25049-0.47949,0.46924-0.75732,0.65674
			c-0.27734,0.18701-0.58154,0.3418-0.91406,0.46387c-0.98975,0.36523-1.87646,0.37842-2.65918,0.0376
			c-0.7832-0.34033-1.34912-0.98438-1.69922-1.93311c-0.35059-0.95068-0.33936-1.80957,0.03516-2.57715
			c0.37402-0.76709,1.05664-1.3335,2.04639-1.69873c0.33252-0.12256,0.66406-0.20264,0.99658-0.24023
			c0.33301-0.03809,0.6665-0.03564,1.00244,0.00732l0.45557,1.23438c-0.35596-0.08936-0.68848-0.12842-0.99854-0.11719
			c-0.30957,0.01123-0.6167,0.07373-0.92188,0.18604c-0.54736,0.20215-0.91309,0.53564-1.09717,1.00146
			c-0.18457,0.46533-0.16309,1.00586,0.06348,1.62061c0.22607,0.6123,0.56055,1.03613,1.00293,1.27051
			c0.44238,0.23389,0.93701,0.25,1.48438,0.04834c0.30518-0.11279,0.57959-0.26514,0.82227-0.45752
			c0.24268-0.19287,0.47021-0.43799,0.68311-0.73779L13.61621,16.98584z"/>
		<path fill="#314E6C" d="M16.26709,10.5752l0.76758,2.08154l2.08203-0.76807l0.34912,0.94531l-2.08203,0.76807l0.76807,2.08203
			l-0.9458,0.34912l-0.76807-2.08203l-2.08203,0.76807l-0.34863-0.9458l2.08203-0.76807l-0.76807-2.08154L16.26709,10.5752z"/>
		<path fill="#314E6C" d="M23.10254,8.05322l0.76758,2.08154l2.08203-0.76758l0.34863,0.94531l-2.08203,0.76807l0.76855,2.08203
			l-0.94531,0.34863l-0.76855-2.08203l-2.08154,0.76807l-0.34863-0.9458l2.08154-0.76758l-0.76807-2.08154L23.10254,8.05322z"/>
	</g>
</svg>
